<svg width="490" height="490" viewBox="0 0 490 490" fill="none" xmlns="http://www.w3.org/2000/svg">
<path d="M245 490C380.31 490 490 380.31 490 245C490 109.69 380.31 0 245 0C109.69 0 0 109.69 0 245C0 380.31 109.69 490 245 490Z" fill="url(#paint0_linear_1_1852)"/>
<path d="M309.636 429.636L287.879 407.879C286.707 406.707 284.808 406.707 283.636 407.879L261.879 429.636C260.707 430.808 260.707 432.707 261.879 433.879L283.636 455.636C284.808 456.808 286.707 456.808 287.879 455.636L309.636 433.879C310.808 432.707 310.808 430.808 309.636 429.636Z" fill="#BFC7F0"/>
<path d="M463.297 214.304L450.696 201.703C449.759 200.766 448.24 200.766 447.303 201.703L434.702 214.304C433.765 215.241 433.765 216.76 434.702 217.697L447.303 230.298C448.24 231.235 449.759 231.235 450.696 230.298L463.297 217.697C464.234 216.76 464.234 215.24 463.297 214.304Z" fill="#BFC7F0"/>
<path fill-rule="evenodd" clip-rule="evenodd" d="M143.5 390.92L140.307 410.307L120.919 413.5L140.307 416.694L143.5 436.081L146.693 416.694L166.081 413.5L146.693 410.307L143.5 390.92ZM139.502 409.502L143.044 388H143.956L147.498 409.502L169 413.044V413.956L147.498 417.498L143.956 439H143.044L139.502 417.498L118 413.956V413.044L139.502 409.502Z" fill="white"/>
<path fill-rule="evenodd" clip-rule="evenodd" d="M143.5 390.92L140.307 410.307L120.919 413.5L140.307 416.694L143.5 436.081L146.693 416.694L166.081 413.5L146.693 410.307L143.5 390.92ZM139.502 409.502L143.044 388H143.956L147.498 409.502L169 413.044V413.956L147.498 417.498L143.956 439H143.044L139.502 417.498L118 413.956V413.044L139.502 409.502Z" fill="white" fill-opacity="0.2"/>
<path d="M140.307 410.307L143.5 390.92L146.693 410.307L166.081 413.5L146.693 416.694L143.5 436.081L140.307 416.694L120.919 413.5L140.307 410.307Z" fill="white"/>
<path d="M140.307 410.307L143.5 390.92L146.693 410.307L166.081 413.5L146.693 416.694L143.5 436.081L140.307 416.694L120.919 413.5L140.307 410.307Z" fill="white" fill-opacity="0.2"/>
<path d="M67.2978 326.304L54.6968 313.703C53.7598 312.766 52.2407 312.766 51.3037 313.703L38.7027 326.304C37.7657 327.241 37.7657 328.76 38.7027 329.697L51.3037 342.298C52.2407 343.235 53.7598 343.235 54.6968 342.298L67.2978 329.697C68.2348 328.759 68.2348 327.241 67.2978 326.304Z" fill="#BFC7F0"/>
<path fill-rule="evenodd" clip-rule="evenodd" d="M228 41.2442L224.358 63.3576L202.244 67L224.358 70.6424L228 92.7557L231.642 70.6424L253.756 67L231.642 63.3576L228 41.2442ZM223.44 62.44L227.48 37.9143H228.52L232.56 62.44L257.086 66.4797V67.5203L232.56 71.56L228.52 96.0857H227.48L223.44 71.56L198.914 67.5203V66.4797L223.44 62.44Z" fill="white"/>
<path fill-rule="evenodd" clip-rule="evenodd" d="M228 41.2442L224.358 63.3576L202.244 67L224.358 70.6424L228 92.7557L231.642 70.6424L253.756 67L231.642 63.3576L228 41.2442ZM223.44 62.44L227.48 37.9143H228.52L232.56 62.44L257.086 66.4797V67.5203L232.56 71.56L228.52 96.0857H227.48L223.44 71.56L198.914 67.5203V66.4797L223.44 62.44Z" fill="white" fill-opacity="0.2"/>
<path d="M224.358 63.3576L228 41.2442L231.642 63.3576L253.756 67L231.642 70.6424L228 92.7557L224.358 70.6424L202.244 67L224.358 63.3576Z" fill="white"/>
<path d="M224.358 63.3576L228 41.2442L231.642 63.3576L253.756 67L231.642 70.6424L228 92.7557L224.358 70.6424L202.244 67L224.358 63.3576Z" fill="white" fill-opacity="0.2"/>
<path d="M412.273 247.156C403.311 247.157 394.351 243.945 387.204 237.521L348.861 203.058C346.96 201.35 344.077 201.35 342.176 203.058L303.836 237.52C289.544 250.366 267.989 250.365 253.698 237.519L215.361 203.059C213.46 201.35 210.577 201.35 208.676 203.059L170.342 237.519C156.05 250.367 134.495 250.368 120.202 237.519L81.865 203.058C79.964 201.349 77.081 201.349 75.18 203.058L33.876 240.188C31.822 242.034 28.661 241.866 26.815 239.812C8.35504 219.275 10.038 187.661 30.575 169.201L53.454 148.636C67.745 135.79 89.3 135.789 103.592 148.636L141.929 183.096C143.83 184.805 146.713 184.805 148.614 183.096L186.948 148.636C201.241 135.789 222.796 135.788 237.088 148.636L275.426 183.097C277.327 184.806 280.21 184.806 282.111 183.097L320.451 148.635C334.743 135.789 356.296 135.79 370.587 148.634L408.932 183.099C410.833 184.807 413.716 184.807 415.617 183.099L456.927 145.969C458.981 144.123 462.142 144.291 463.988 146.345C482.448 166.883 480.763 198.496 460.226 216.956L437.343 237.524C430.196 243.944 421.233 247.156 412.273 247.156Z" fill="white"/>
<path d="M460.224 191.877L437.341 212.445C430.195 218.867 421.233 222.078 412.273 222.079C403.311 222.08 394.351 218.868 387.204 212.444L348.861 177.981C346.96 176.273 344.077 176.273 342.176 177.981L303.836 212.444C289.544 225.29 267.989 225.289 253.698 212.443L215.361 177.983C213.46 176.275 210.577 176.275 208.676 177.983L170.342 212.443C156.05 225.291 134.495 225.292 120.202 212.443L81.865 177.982C79.964 176.274 77.081 176.274 75.18 177.982L33.875 215.11C31.821 216.956 28.66 216.788 26.814 214.734C21.26 208.555 17.543 201.371 15.601 193.847C11.554 209.525 15.179 226.868 26.814 239.813C28.66 241.867 31.821 242.035 33.875 240.189L75.18 203.061C77.081 201.352 79.964 201.352 81.865 203.061L120.202 237.522C134.495 250.371 156.05 250.369 170.342 237.522L208.676 203.062C210.577 201.353 213.46 201.353 215.361 203.062L253.698 237.522C267.99 250.368 289.544 250.369 303.836 237.523L342.176 203.061C344.077 201.352 346.96 201.352 348.861 203.061L387.204 237.524C394.35 243.948 403.31 247.16 412.273 247.159C421.233 247.159 430.196 243.947 437.341 237.525L460.224 216.957C474.583 204.051 479.713 184.718 475.199 167.233C472.825 176.427 467.817 185.052 460.224 191.877Z" fill="#EDEDED"/>
<path d="M412.273 376.156C403.311 376.157 394.351 372.945 387.204 366.521L348.861 332.058C346.96 330.35 344.077 330.35 342.176 332.058L303.836 366.52C289.544 379.366 267.989 379.365 253.698 366.519L215.361 332.059C213.46 330.35 210.577 330.35 208.676 332.059L170.342 366.519C156.05 379.367 134.495 379.368 120.202 366.519L81.865 332.058C79.964 330.349 77.081 330.349 75.18 332.058L33.876 369.188C31.822 371.034 28.661 370.866 26.815 368.812C8.35504 348.275 10.038 316.661 30.575 298.201L53.454 277.636C67.745 264.79 89.3 264.789 103.592 277.636L141.929 312.096C143.83 313.805 146.713 313.805 148.614 312.096L186.948 277.636C201.241 264.789 222.796 264.788 237.088 277.636L275.426 312.097C277.327 313.806 280.21 313.806 282.111 312.097L320.451 277.635C334.743 264.789 356.296 264.79 370.587 277.634L408.932 312.099C410.833 313.807 413.716 313.807 415.617 312.099L456.927 274.969C458.981 273.123 462.142 273.291 463.988 275.345C482.448 295.883 480.763 327.496 460.226 345.956L437.343 366.524C430.196 372.944 421.233 376.156 412.273 376.156Z" fill="white"/>
<path d="M460.224 320.877L437.341 341.445C430.195 347.867 421.233 351.078 412.273 351.079C403.311 351.08 394.351 347.868 387.204 341.444L348.861 306.981C346.96 305.273 344.077 305.273 342.176 306.981L303.836 341.444C289.544 354.29 267.989 354.289 253.698 341.443L215.361 306.983C213.46 305.275 210.577 305.275 208.676 306.983L170.342 341.443C156.05 354.291 134.495 354.292 120.202 341.443L81.865 306.982C79.964 305.274 77.081 305.274 75.18 306.982L33.875 344.11C31.821 345.956 28.66 345.788 26.814 343.734C21.26 337.555 17.543 330.371 15.601 322.847C11.554 338.525 15.179 355.868 26.814 368.813C28.66 370.867 31.821 371.035 33.875 369.189L75.18 332.061C77.081 330.352 79.964 330.352 81.865 332.061L120.202 366.522C134.495 379.371 156.05 379.369 170.342 366.522L208.676 332.062C210.577 330.353 213.46 330.353 215.361 332.062L253.698 366.522C267.99 379.368 289.544 379.369 303.836 366.523L342.176 332.061C344.077 330.352 346.96 330.352 348.861 332.061L387.204 366.524C394.35 372.948 403.31 376.16 412.273 376.159C421.233 376.159 430.196 372.947 437.341 366.525L460.224 345.957C474.583 333.051 479.713 313.718 475.199 296.233C472.825 305.427 467.817 314.052 460.224 320.877Z" fill="#EDEDED"/>
<path fill-rule="evenodd" clip-rule="evenodd" d="M391.564 98.4688L388.863 114.863L372.469 117.564L388.863 120.264L391.564 136.658L394.264 120.264L410.658 117.564L394.264 114.863L391.564 98.4688ZM388.183 114.183L391.178 96H391.949L394.944 114.183L413.127 117.178V117.949L394.944 120.944L391.949 139.127H391.178L388.183 120.944L370 117.949V117.178L388.183 114.183Z" fill="white"/>
<path fill-rule="evenodd" clip-rule="evenodd" d="M391.564 98.4688L388.863 114.863L372.469 117.564L388.863 120.264L391.564 136.658L394.264 120.264L410.658 117.564L394.264 114.863L391.564 98.4688ZM388.183 114.183L391.178 96H391.949L394.944 114.183L413.127 117.178V117.949L394.944 120.944L391.949 139.127H391.178L388.183 120.944L370 117.949V117.178L388.183 114.183Z" fill="white" fill-opacity="0.2"/>
<path d="M388.863 114.863L391.564 98.4688L394.264 114.863L410.658 117.564L394.264 120.264L391.564 136.658L388.863 120.264L372.469 117.564L388.863 114.863Z" fill="white"/>
<path d="M388.863 114.863L391.564 98.4688L394.264 114.863L410.658 117.564L394.264 120.264L391.564 136.658L388.863 120.264L372.469 117.564L388.863 114.863Z" fill="white" fill-opacity="0.2"/>
<defs>
<linearGradient id="paint0_linear_1_1852" x1="54.0256" y1="307.067" x2="441.031" y2="305.617" gradientUnits="userSpaceOnUse">
<stop stop-color="#E38BF1"/>
<stop offset="0.44614" stop-color="#AA75E0"/>
<stop offset="0.985435" stop-color="#4640EE"/>
</linearGradient>
</defs>
</svg>
