<svg width="490" height="512" viewBox="0 0 490 512" fill="none" xmlns="http://www.w3.org/2000/svg">
<path d="M245 501C380.31 501 490 391.31 490 256C490 120.69 380.31 11 245 11C109.69 11 0 120.69 0 256C0 391.31 109.69 501 245 501Z" fill="url(#paint0_linear_1_1774)"/>
<path d="M416.865 143.119C419.526 147.634 425.256 149.277 429.938 146.922L461.263 131.161C466.358 128.598 468.32 122.276 465.488 117.327C424.512 45.724 338.554 0 243.245 0C154.776 0 74.3641 39.396 30.5061 102.317C29.1661 104.239 28.1441 106.278 27.4231 108.376C47.5631 78.323 81.8331 58.498 120.649 58.498C136.727 58.498 152.023 61.906 165.861 68.026C190.065 59.457 216.29 55 243.245 55C282.775 55 320.747 64.568 353.056 82.671C380.732 98.177 402.623 118.951 416.865 143.119Z" fill="#FAFAFA"/>
<path d="M109.372 59.063C150 35.098 199.177 21.503 251.138 21.503C340.896 21.503 422.354 62.059 465.764 126.588C467.15 123.742 467.185 120.29 465.488 117.325C424.512 45.724 338.554 0 243.245 0C154.776 0 74.3641 39.396 30.5061 102.317C29.1701 104.234 28.1551 106.268 27.4351 108.359C45.6011 81.262 75.2561 62.485 109.372 59.063Z" fill="white"/>
<path d="M361.226 453.501C345.147 453.501 329.852 450.093 316.014 443.973C291.81 452.543 265.584 457 238.63 457C199.1 457 161.129 447.432 128.819 429.329C101.142 413.823 79.2521 393.049 65.0101 368.881C62.3491 364.366 56.6191 362.723 51.9371 365.078L20.6111 380.84C15.5161 383.403 13.5541 389.725 16.3871 394.674C57.3621 466.276 143.321 512 238.629 512C328.926 512 410.83 470.959 454.04 405.752C455.202 403.999 456.056 402.141 456.631 400.237C436.845 432.178 401.481 453.501 361.226 453.501Z" fill="#FAFAFA"/>
<path d="M252.105 495C156.796 495 70.8381 449.276 29.8621 377.674C29.6381 377.282 29.4541 376.879 29.2891 376.473L20.6101 380.84C15.5151 383.403 13.5531 389.725 16.3861 394.674C57.3621 466.276 143.321 512 238.629 512C326.391 512 406.22 473.228 450.305 411.184C404.491 463.228 331.549 495 252.105 495Z" fill="white"/>
<path d="M361.226 454.501C298.835 454.501 248.077 403.743 248.077 341.353C248.077 278.962 298.835 228.204 361.226 228.204C423.617 228.204 474.375 278.962 474.375 341.353C474.375 403.743 423.616 454.501 361.226 454.501ZM361.226 283.204C329.163 283.204 303.077 309.289 303.077 341.353C303.077 373.416 329.162 399.501 361.226 399.501C393.29 399.501 419.375 373.416 419.375 341.353C419.375 309.29 393.289 283.204 361.226 283.204Z" fill="white"/>
<path d="M274.702 341.353C274.702 283.466 318.399 235.601 374.538 228.991C370.17 228.477 365.729 228.204 361.225 228.204C298.834 228.204 248.076 278.962 248.076 341.353C248.076 403.743 298.834 454.501 361.225 454.501C365.729 454.501 370.17 454.228 374.538 453.714C318.399 447.104 274.702 399.239 274.702 341.353Z" fill="#EDEDED"/>
<path d="M374.538 397.946C378.817 398.952 383.269 399.502 387.851 399.502C419.914 399.502 446 373.417 446 341.354C446 309.291 419.915 283.205 387.851 283.205C383.27 283.205 378.817 283.754 374.538 284.761C400.204 290.798 419.374 313.872 419.374 341.354C419.375 368.835 400.204 391.908 374.538 397.946Z" fill="#EDEDED"/>
<path d="M120.649 283.796C58.258 283.796 7.5 233.038 7.5 170.647C7.5 108.257 58.258 57.499 120.649 57.499C183.039 57.499 233.797 108.257 233.797 170.647C233.797 233.038 183.039 283.796 120.649 283.796ZM120.649 112.499C88.586 112.499 62.5 138.584 62.5 170.647C62.5 202.71 88.585 228.796 120.649 228.796C152.712 228.796 178.797 202.711 178.797 170.647C178.797 138.584 152.712 112.499 120.649 112.499Z" fill="white"/>
<path d="M133.25 227.405C137.31 228.306 141.524 228.796 145.851 228.796C177.914 228.796 203.999 202.711 203.999 170.647C203.999 138.584 177.914 112.499 145.851 112.499C141.523 112.499 137.31 112.989 133.25 113.89C159.273 119.664 178.797 142.912 178.797 170.647C178.797 198.383 159.273 221.63 133.25 227.405Z" fill="#EDEDED"/>
<path d="M32.703 170.647C32.703 112.516 76.769 64.492 133.251 58.204C129.112 57.743 124.909 57.498 120.65 57.498C58.258 57.499 7.5 108.257 7.5 170.647C7.5 233.038 58.258 283.796 120.649 283.796C124.909 283.796 129.112 283.551 133.25 283.09C76.769 276.802 32.703 228.778 32.703 170.647Z" fill="#EDEDED"/>
<path d="M386.636 175.636L364.879 153.879C363.707 152.707 361.808 152.707 360.636 153.879L338.879 175.636C337.707 176.808 337.707 178.707 338.879 179.879L360.636 201.636C361.808 202.808 363.707 202.808 364.879 201.636L386.636 179.879C387.808 178.707 387.808 176.808 386.636 175.636Z" fill="#BFC7F0"/>
<path fill-rule="evenodd" clip-rule="evenodd" d="M201.5 287.405L198.8 303.8L182.405 306.5L198.8 309.2L201.5 325.595L204.2 309.2L220.595 306.5L204.2 303.8L201.5 287.405ZM198.119 303.119L201.114 284.937H201.886L204.881 303.119L223.064 306.114V306.886L204.881 309.881L201.886 328.064H201.114L198.119 309.881L179.937 306.886V306.114L198.119 303.119Z" fill="white"/>
<path fill-rule="evenodd" clip-rule="evenodd" d="M201.5 287.405L198.8 303.8L182.405 306.5L198.8 309.2L201.5 325.595L204.2 309.2L220.595 306.5L204.2 303.8L201.5 287.405ZM198.119 303.119L201.114 284.937H201.886L204.881 303.119L223.064 306.114V306.886L204.881 309.881L201.886 328.064H201.114L198.119 309.881L179.937 306.886V306.114L198.119 303.119Z" fill="white" fill-opacity="0.2"/>
<path d="M198.8 303.8L201.5 287.405L204.2 303.8L220.595 306.5L204.2 309.2L201.5 325.595L198.8 309.2L182.405 306.5L198.8 303.8Z" fill="white"/>
<path d="M198.8 303.8L201.5 287.405L204.2 303.8L220.595 306.5L204.2 309.2L201.5 325.595L198.8 309.2L182.405 306.5L198.8 303.8Z" fill="white" fill-opacity="0.2"/>
<path d="M463.297 225.304L450.696 212.703C449.759 211.766 448.24 211.766 447.303 212.703L434.702 225.304C433.765 226.241 433.765 227.76 434.702 228.697L447.303 241.298C448.24 242.235 449.759 242.235 450.696 241.298L463.297 228.697C464.234 227.76 464.234 226.24 463.297 225.304Z" fill="#BFC7F0"/>
<path fill-rule="evenodd" clip-rule="evenodd" d="M113.5 315.919L110.307 335.307L90.9194 338.5L110.307 341.693L113.5 361.081L116.693 341.693L136.081 338.5L116.693 335.307L113.5 315.919ZM109.502 334.502L113.044 313H113.956L117.498 334.502L139 338.044V338.956L117.498 342.498L113.956 364H113.044L109.502 342.498L88 338.956V338.044L109.502 334.502Z" fill="white"/>
<path fill-rule="evenodd" clip-rule="evenodd" d="M113.5 315.919L110.307 335.307L90.9194 338.5L110.307 341.693L113.5 361.081L116.693 341.693L136.081 338.5L116.693 335.307L113.5 315.919ZM109.502 334.502L113.044 313H113.956L117.498 334.502L139 338.044V338.956L117.498 342.498L113.956 364H113.044L109.502 342.498L88 338.956V338.044L109.502 334.502Z" fill="white" fill-opacity="0.2"/>
<path d="M110.307 335.307L113.5 315.919L116.693 335.307L136.081 338.5L116.693 341.693L113.5 361.081L110.307 341.693L90.9194 338.5L110.307 335.307Z" fill="white"/>
<path d="M110.307 335.307L113.5 315.919L116.693 335.307L136.081 338.5L116.693 341.693L113.5 361.081L110.307 341.693L90.9194 338.5L110.307 335.307Z" fill="white" fill-opacity="0.2"/>
<path d="M217.297 409.304L204.696 396.703C203.759 395.766 202.24 395.766 201.303 396.703L188.702 409.304C187.765 410.241 187.765 411.76 188.702 412.697L201.303 425.298C202.24 426.235 203.759 426.235 204.696 425.298L217.297 412.697C218.234 411.759 218.234 410.241 217.297 409.304Z" fill="#BFC7F0"/>
<path fill-rule="evenodd" clip-rule="evenodd" d="M282 95.2442L278.358 117.358L256.244 121L278.358 124.642L282 146.756L285.642 124.642L307.756 121L285.642 117.358L282 95.2442ZM277.44 116.44L281.48 91.9143H282.52L286.56 116.44L311.086 120.48V121.52L286.56 125.56L282.52 150.086H281.48L277.44 125.56L252.914 121.52V120.48L277.44 116.44Z" fill="white"/>
<path fill-rule="evenodd" clip-rule="evenodd" d="M282 95.2442L278.358 117.358L256.244 121L278.358 124.642L282 146.756L285.642 124.642L307.756 121L285.642 117.358L282 95.2442ZM277.44 116.44L281.48 91.9143H282.52L286.56 116.44L311.086 120.48V121.52L286.56 125.56L282.52 150.086H281.48L277.44 125.56L252.914 121.52V120.48L277.44 116.44Z" fill="white" fill-opacity="0.2"/>
<path d="M278.358 117.358L282 95.2442L285.642 117.358L307.756 121L285.642 124.642L282 146.756L278.358 124.642L256.244 121L278.358 117.358Z" fill="white"/>
<path d="M278.358 117.358L282 95.2442L285.642 117.358L307.756 121L285.642 124.642L282 146.756L278.358 124.642L256.244 121L278.358 117.358Z" fill="white" fill-opacity="0.2"/>
<defs>
<linearGradient id="paint0_linear_1_1774" x1="54.0256" y1="318.067" x2="441.031" y2="316.617" gradientUnits="userSpaceOnUse">
<stop stop-color="#E38BF1"/>
<stop offset="0.44614" stop-color="#AA75E0"/>
<stop offset="0.985435" stop-color="#4640EE"/>
</linearGradient>
</defs>
</svg>
