<svg width="490" height="490" viewBox="0 0 490 490" fill="none" xmlns="http://www.w3.org/2000/svg">
<path d="M245 490C380.31 490 490 380.31 490 245C490 109.69 380.31 0 245 0C109.69 0 0 109.69 0 245C0 380.31 109.69 490 245 490Z" fill="url(#paint0_linear_1_2038)"/>
<path d="M63.2722 203.743L45.2567 185.728C44.2862 184.757 42.7138 184.757 41.7433 185.728L23.7278 203.743C22.7574 204.714 22.7574 206.286 23.7278 207.257L41.7433 225.272C42.7138 226.243 44.2862 226.243 45.2567 225.272L63.2722 207.257C64.2426 206.286 64.2426 204.714 63.2722 203.743Z" fill="#BFC7F0"/>
<path fill-rule="evenodd" clip-rule="evenodd" d="M415.5 279.405L412.8 295.8L396.405 298.5L412.8 301.2L415.5 317.595L418.2 301.2L434.595 298.5L418.2 295.8L415.5 279.405ZM412.119 295.119L415.114 276.937H415.886L418.881 295.119L437.064 298.114V298.886L418.881 301.881L415.886 320.064H415.114L412.119 301.881L393.937 298.886V298.114L412.119 295.119Z" fill="white"/>
<path fill-rule="evenodd" clip-rule="evenodd" d="M415.5 279.405L412.8 295.8L396.405 298.5L412.8 301.2L415.5 317.595L418.2 301.2L434.595 298.5L418.2 295.8L415.5 279.405ZM412.119 295.119L415.114 276.937H415.886L418.881 295.119L437.064 298.114V298.886L418.881 301.881L415.886 320.064H415.114L412.119 301.881L393.937 298.886V298.114L412.119 295.119Z" fill="white" fill-opacity="0.2"/>
<path d="M412.8 295.8L415.5 279.405L418.2 295.8L434.595 298.5L418.2 301.2L415.5 317.595L412.8 301.2L396.405 298.5L412.8 295.8Z" fill="white"/>
<path d="M412.8 295.8L415.5 279.405L418.2 295.8L434.595 298.5L418.2 301.2L415.5 317.595L412.8 301.2L396.405 298.5L412.8 295.8Z" fill="white" fill-opacity="0.2"/>
<path d="M462.852 222.729L442.271 202.148C440.741 200.617 438.26 200.617 436.729 202.148L416.148 222.729C414.617 224.26 414.617 226.74 416.148 228.271L436.729 248.852C438.26 250.383 440.741 250.383 442.271 248.852L462.852 228.271C464.383 226.74 464.383 224.258 462.852 222.729Z" fill="#BFC7F0"/>
<path fill-rule="evenodd" clip-rule="evenodd" d="M98.5 141.919L95.3066 161.307L75.9194 164.5L95.3066 167.693L98.5 187.081L101.693 167.693L121.081 164.5L101.693 161.307L98.5 141.919ZM94.5021 160.502L98.0439 139H98.9561L102.498 160.502L124 164.044V164.956L102.498 168.498L98.9561 190H98.0439L94.5021 168.498L73 164.956V164.044L94.5021 160.502Z" fill="white"/>
<path fill-rule="evenodd" clip-rule="evenodd" d="M98.5 141.919L95.3066 161.307L75.9194 164.5L95.3066 167.693L98.5 187.081L101.693 167.693L121.081 164.5L101.693 161.307L98.5 141.919ZM94.5021 160.502L98.0439 139H98.9561L102.498 160.502L124 164.044V164.956L102.498 168.498L98.9561 190H98.0439L94.5021 168.498L73 164.956V164.044L94.5021 160.502Z" fill="white" fill-opacity="0.2"/>
<path d="M95.3066 161.307L98.5 141.919L101.693 161.307L121.081 164.5L101.693 167.693L98.5 187.081L95.3066 167.693L75.9194 164.5L95.3066 161.307Z" fill="white"/>
<path d="M95.3066 161.307L98.5 141.919L101.693 161.307L121.081 164.5L101.693 167.693L98.5 187.081L95.3066 167.693L75.9194 164.5L95.3066 161.307Z" fill="white" fill-opacity="0.2"/>
<path d="M401.5 392.5V395.801C401.5 412.223 388.065 426.172 371.644 425.998C362.539 425.902 354.148 421.723 348.578 414.5C342.943 407.192 341.057 397.882 343.404 388.957L404.086 158.149C414.104 120.045 406.052 80.296 381.994 49.095C357.935 17.895 321.541 0 282.141 0C242.689 0 206.265 17.934 182.207 49.202C158.15 80.471 150.152 120.275 160.266 158.409L171.975 202.562C203.932 208.338 230.546 229.66 243.68 258.387L213.428 144.311C207.726 122.811 212.236 100.37 225.799 82.741C239.45 64.999 260.163 54.871 282.57 55.002C304.199 55.128 324.759 65.212 338.096 82.24C351.925 99.896 356.589 122.502 350.894 144.165L290.212 374.973C283.285 401.321 289.245 428.843 306.575 450.04C321.438 468.22 343.394 479.456 366.835 480.849C415.763 483.755 456.5 444.779 456.5 396.468V392.5C456.5 386.977 452.023 382.5 446.5 382.5H411.5C405.977 382.5 401.5 386.977 401.5 392.5Z" fill="white"/>
<path d="M401.5 392.5V395.801C401.5 407.697 394.448 418.29 384.32 423.162C388.118 424.962 392.305 425.952 396.66 425.998C413.081 426.172 426.516 412.222 426.516 395.801V392.5C426.516 386.977 430.993 382.5 436.516 382.5H411.5C405.977 382.5 401.5 386.977 401.5 392.5Z" fill="#EDEDED"/>
<path d="M331.59 450.039C314.26 428.842 308.3 401.321 315.227 374.972L375.909 144.164C381.604 122.501 376.941 99.896 363.111 82.239C349.774 65.211 329.214 55.127 307.585 55.001C303.172 54.975 298.827 55.353 294.587 56.103C311.657 59.154 327.26 68.405 338.096 82.239C351.925 99.895 356.589 122.501 350.894 144.164L290.212 374.972C283.285 401.32 289.245 428.842 306.575 450.039C321.438 468.219 343.394 479.455 366.835 480.848C372.861 481.206 378.762 480.926 384.479 480.074C363.85 476.997 344.883 466.298 331.59 450.039Z" fill="#EDEDED"/>
<path d="M185.281 158.409C175.168 120.275 183.165 80.471 207.222 49.202C228.713 21.269 260.076 3.99 294.647 0.619C290.52 0.217 286.349 0 282.141 0C242.689 0 206.265 17.934 182.207 49.202C158.15 80.471 150.152 120.275 160.266 158.409L171.975 202.562C183.052 204.564 193.485 208.437 202.939 213.836L185.281 158.409Z" fill="#EDEDED"/>
<path d="M154.5 398C99.911 398 55.5 353.589 55.5 299C55.5 244.411 99.911 200 154.5 200C209.089 200 253.5 244.411 253.5 299C253.5 353.589 209.089 398 154.5 398ZM154.5 255C130.238 255 110.5 274.738 110.5 299C110.5 323.262 130.238 343 154.5 343C178.762 343 198.5 323.262 198.5 299C198.5 274.738 178.762 255 154.5 255Z" fill="#F7F7F7"/>
<path d="M166.75 341.252C170.642 342.382 174.749 343 179 343C203.262 343 223 323.262 223 299C223 274.738 203.262 255 179 255C174.749 255 170.642 255.618 166.75 256.748C185.068 262.068 198.5 278.989 198.5 299C198.5 319.011 185.068 335.932 166.75 341.252Z" fill="#EDEDED"/>
<path d="M80 299C80 248.559 117.92 206.811 166.75 200.758C162.735 200.26 158.647 200 154.5 200C99.911 200 55.5 244.411 55.5 299C55.5 353.589 99.911 398 154.5 398C158.647 398 162.735 397.74 166.75 397.242C117.92 391.189 80 349.441 80 299Z" fill="white"/>
<defs>
<linearGradient id="paint0_linear_1_2038" x1="54.0256" y1="307.067" x2="441.031" y2="305.617" gradientUnits="userSpaceOnUse">
<stop stop-color="#E38BF1"/>
<stop offset="0.44614" stop-color="#AA75E0"/>
<stop offset="0.985435" stop-color="#4640EE"/>
</linearGradient>
</defs>
</svg>
