<svg width="490" height="490" viewBox="0 0 490 490" fill="none" xmlns="http://www.w3.org/2000/svg">
<path d="M245 490C380.31 490 490 380.31 490 245C490 109.69 380.31 0 245 0C109.69 0 0 109.69 0 245C0 380.31 109.69 490 245 490Z" fill="url(#paint0_linear_1_1967)"/>
<path d="M113.237 115.658L94.3424 96.7633C93.3246 95.7456 91.6754 95.7456 90.6576 96.7633L71.7633 115.658C70.7456 116.675 70.7456 118.325 71.7633 119.342L90.6576 138.237C91.6754 139.254 93.3246 139.254 94.3424 138.237L113.237 119.342C114.254 118.325 114.254 116.675 113.237 115.658Z" fill="#BFC7F0"/>
<path d="M206.298 450.304L193.697 437.703C192.76 436.766 191.241 436.766 190.304 437.703L177.703 450.304C176.766 451.241 176.766 452.76 177.703 453.697L190.304 466.298C191.241 467.235 192.76 467.235 193.697 466.298L206.298 453.697C207.235 452.76 207.235 451.24 206.298 450.304Z" fill="#BFC7F0"/>
<path fill-rule="evenodd" clip-rule="evenodd" d="M182.5 148.919L179.307 168.307L159.919 171.5L179.307 174.693L182.5 194.081L185.693 174.693L205.081 171.5L185.693 168.307L182.5 148.919ZM178.502 167.502L182.044 146H182.956L186.498 167.502L208 171.044V171.956L186.498 175.498L182.956 197H182.044L178.502 175.498L157 171.956V171.044L178.502 167.502Z" fill="white"/>
<path fill-rule="evenodd" clip-rule="evenodd" d="M182.5 148.919L179.307 168.307L159.919 171.5L179.307 174.693L182.5 194.081L185.693 174.693L205.081 171.5L185.693 168.307L182.5 148.919ZM178.502 167.502L182.044 146H182.956L186.498 167.502L208 171.044V171.956L186.498 175.498L182.956 197H182.044L178.502 175.498L157 171.956V171.044L178.502 167.502Z" fill="white" fill-opacity="0.2"/>
<path d="M179.307 168.307L182.5 148.919L185.693 168.307L205.081 171.5L185.693 174.693L182.5 194.081L179.307 174.693L159.919 171.5L179.307 168.307Z" fill="white"/>
<path d="M179.307 168.307L182.5 148.919L185.693 168.307L205.081 171.5L185.693 174.693L182.5 194.081L179.307 174.693L159.919 171.5L179.307 168.307Z" fill="white" fill-opacity="0.2"/>
<path fill-rule="evenodd" clip-rule="evenodd" d="M323 260.404L320.37 276.37L304.404 279L320.37 281.63L323 297.596L325.63 281.63L341.596 279L325.63 276.37L323 260.404ZM319.708 275.708L322.624 258H323.376L326.292 275.708L344 278.624V279.376L326.292 282.292L323.376 300H322.624L319.708 282.292L302 279.376V278.624L319.708 275.708Z" fill="white"/>
<path fill-rule="evenodd" clip-rule="evenodd" d="M323 260.404L320.37 276.37L304.404 279L320.37 281.63L323 297.596L325.63 281.63L341.596 279L325.63 276.37L323 260.404ZM319.708 275.708L322.624 258H323.376L326.292 275.708L344 278.624V279.376L326.292 282.292L323.376 300H322.624L319.708 282.292L302 279.376V278.624L319.708 275.708Z" fill="white" fill-opacity="0.2"/>
<path d="M320.37 276.37L323 260.404L325.63 276.37L341.596 279L325.63 281.63L323 297.596L320.37 281.63L304.404 279L320.37 276.37Z" fill="white"/>
<path d="M320.37 276.37L323 260.404L325.63 276.37L341.596 279L325.63 281.63L323 297.596L320.37 281.63L304.404 279L320.37 276.37Z" fill="white" fill-opacity="0.2"/>
<path d="M132.664 318.391L37 414.055C48.709 428.226 61.991 441.045 76.563 452.273L171.554 357.282L132.664 318.391Z" fill="white"/>
<path d="M398.946 102C398.946 95.935 394.011 91 387.946 91H360.055L170.141 280.915L209.032 319.806L398.947 129.891V102H398.946Z" fill="white"/>
<path d="M79.057 405.88L149.605 335.332L132.664 318.391L37 414.055C48.709 428.226 61.991 441.045 76.563 452.273L100.332 428.504C92.78 421.415 85.661 413.871 79.057 405.88Z" fill="#EDEDED"/>
<path d="M387.946 91H360.055L170.141 280.915L187.082 297.856L392.796 92.142C391.33 91.418 389.688 91 387.946 91Z" fill="#EDEDED"/>
<path d="M442.946 298.543H407.946C402.423 298.543 397.946 294.066 397.946 288.543V102C397.946 96.477 393.469 92 387.946 92H201.403C195.88 92 191.403 87.523 191.403 82V47C191.403 41.477 195.88 37 201.403 37H432.946C443.992 37 452.946 45.954 452.946 57V288.543C452.946 294.066 448.469 298.543 442.946 298.543Z" fill="white"/>
<path d="M428.501 265.098C422.978 265.098 418.501 260.621 418.501 255.098V76.555C418.501 71.032 414.024 66.555 408.501 66.555H229.958C224.435 66.555 219.958 62.078 219.958 56.555V37H201.403C195.88 37 191.403 41.477 191.403 47V82C191.403 87.523 195.88 92 201.403 92H387.946C393.469 92 397.946 96.477 397.946 102V288.543C397.946 294.066 402.423 298.543 407.946 298.543H442.946C448.469 298.543 452.946 294.066 452.946 288.543V265.098H428.501Z" fill="#EDEDED"/>
<path d="M249.581 436.722L53.2239 240.365C49.3189 236.46 49.3189 230.128 53.2239 226.223L77.9719 201.475C81.8769 197.57 88.2089 197.57 92.1139 201.475L288.471 397.832C292.376 401.737 292.376 408.069 288.471 411.974L263.723 436.722C259.818 440.627 253.487 440.627 249.581 436.722Z" fill="white"/>
<path d="M86.8869 240.365C82.9819 236.46 82.9819 230.128 86.8869 226.223L101.875 211.235L92.1149 201.475C88.2099 197.57 81.8779 197.57 77.9729 201.475L53.2249 226.224C49.3199 230.129 49.3199 236.461 53.2249 240.366L249.582 436.723C253.487 440.628 259.819 440.628 263.724 436.723L273.484 426.963L86.8869 240.365Z" fill="#EDEDED"/>
<path fill-rule="evenodd" clip-rule="evenodd" d="M361 369.061L358.746 382.746L345.061 385L358.746 387.254L361 400.939L363.254 387.254L376.939 385L363.254 382.746L361 369.061ZM358.178 382.178L360.678 367H361.322L363.822 382.178L379 384.678V385.322L363.822 387.822L361.322 403H360.678L358.178 387.822L343 385.322V384.678L358.178 382.178Z" fill="white"/>
<path fill-rule="evenodd" clip-rule="evenodd" d="M361 369.061L358.746 382.746L345.061 385L358.746 387.254L361 400.939L363.254 387.254L376.939 385L363.254 382.746L361 369.061ZM358.178 382.178L360.678 367H361.322L363.822 382.178L379 384.678V385.322L363.822 387.822L361.322 403H360.678L358.178 387.822L343 385.322V384.678L358.178 382.178Z" fill="white" fill-opacity="0.2"/>
<path d="M358.746 382.746L361 369.061L363.254 382.746L376.939 385L363.254 387.254L361 400.939L358.746 387.254L345.061 385L358.746 382.746Z" fill="white"/>
<path d="M358.746 382.746L361 369.061L363.254 382.746L376.939 385L363.254 387.254L361 400.939L358.746 387.254L345.061 385L358.746 382.746Z" fill="white" fill-opacity="0.2"/>
<path fill-rule="evenodd" clip-rule="evenodd" d="M364.564 65.4688L361.863 81.8631L345.469 84.5635L361.863 87.2639L364.564 103.658L367.264 87.2639L383.658 84.5635L367.264 81.8631L364.564 65.4688ZM361.183 81.1828L364.178 63H364.949L367.944 81.1828L386.127 84.1778V84.9492L367.944 87.9442L364.949 106.127H364.178L361.183 87.9442L343 84.9492V84.1778L361.183 81.1828Z" fill="white"/>
<path fill-rule="evenodd" clip-rule="evenodd" d="M364.564 65.4688L361.863 81.8631L345.469 84.5635L361.863 87.2639L364.564 103.658L367.264 87.2639L383.658 84.5635L367.264 81.8631L364.564 65.4688ZM361.183 81.1828L364.178 63H364.949L367.944 81.1828L386.127 84.1778V84.9492L367.944 87.9442L364.949 106.127H364.178L361.183 87.9442L343 84.9492V84.1778L361.183 81.1828Z" fill="white" fill-opacity="0.2"/>
<path d="M361.863 81.8631L364.564 65.4688L367.264 81.8631L383.658 84.5635L367.264 87.2639L364.564 103.658L361.863 87.2639L345.469 84.5635L361.863 81.8631Z" fill="white"/>
<path d="M361.863 81.8631L364.564 65.4688L367.264 81.8631L383.658 84.5635L367.264 87.2639L364.564 103.658L361.863 87.2639L345.469 84.5635L361.863 81.8631Z" fill="white" fill-opacity="0.2"/>
<defs>
<linearGradient id="paint0_linear_1_1967" x1="54.0256" y1="307.067" x2="441.031" y2="305.617" gradientUnits="userSpaceOnUse">
<stop stop-color="#E38BF1"/>
<stop offset="0.44614" stop-color="#AA75E0"/>
<stop offset="0.985435" stop-color="#4640EE"/>
</linearGradient>
</defs>
</svg>
