<svg width="490" height="490" viewBox="0 0 490 490" fill="none" xmlns="http://www.w3.org/2000/svg">
<path d="M86.636 203.636L64.879 181.879C63.707 180.707 61.808 180.707 60.636 181.879L38.879 203.636C37.707 204.808 37.707 206.707 38.879 207.879L60.636 229.636C61.808 230.808 63.707 230.808 64.879 229.636L86.636 207.879C87.808 206.707 87.808 204.808 86.636 203.636Z" fill="#BFC7F0"/>
<path d="M463.297 214.304L450.696 201.703C449.759 200.766 448.24 200.766 447.303 201.703L434.702 214.304C433.765 215.241 433.765 216.76 434.702 217.697L447.303 230.298C448.24 231.235 449.759 231.235 450.696 230.298L463.297 217.697C464.234 216.76 464.234 215.24 463.297 214.304Z" fill="#BFC7F0"/>
<path fill-rule="evenodd" clip-rule="evenodd" d="M438.5 271.919L435.307 291.307L415.919 294.5L435.307 297.693L438.5 317.081L441.693 297.693L461.081 294.5L441.693 291.307L438.5 271.919ZM434.502 290.502L438.044 269H438.956L442.498 290.502L464 294.044V294.956L442.498 298.498L438.956 320H438.044L434.502 298.498L413 294.956V294.044L434.502 290.502Z" fill="white"/>
<path fill-rule="evenodd" clip-rule="evenodd" d="M438.5 271.919L435.307 291.307L415.919 294.5L435.307 297.693L438.5 317.081L441.693 297.693L461.081 294.5L441.693 291.307L438.5 271.919ZM434.502 290.502L438.044 269H438.956L442.498 290.502L464 294.044V294.956L442.498 298.498L438.956 320H438.044L434.502 298.498L413 294.956V294.044L434.502 290.502Z" fill="white" fill-opacity="0.2"/>
<path d="M435.307 291.307L438.5 271.919L441.693 291.307L461.081 294.5L441.693 297.693L438.5 317.081L435.307 297.693L415.919 294.5L435.307 291.307Z" fill="white"/>
<path d="M435.307 291.307L438.5 271.919L441.693 291.307L461.081 294.5L441.693 297.693L438.5 317.081L435.307 297.693L415.919 294.5L435.307 291.307Z" fill="white" fill-opacity="0.2"/>
<path d="M67.2978 326.304L54.6968 313.703C53.7598 312.766 52.2407 312.766 51.3037 313.703L38.7027 326.304C37.7657 327.241 37.7657 328.76 38.7027 329.697L51.3037 342.298C52.2407 343.235 53.7598 343.235 54.6968 342.298L67.2978 329.697C68.2348 328.759 68.2348 327.241 67.2978 326.304Z" fill="#BFC7F0"/>
<path fill-rule="evenodd" clip-rule="evenodd" d="M245 68.2442L241.358 90.3576L219.244 94L241.358 97.6424L245 119.756L248.642 97.6424L270.756 94L248.642 90.3576L245 68.2442ZM240.44 89.44L244.48 64.9143H245.52L249.56 89.44L274.086 93.4797V94.5203L249.56 98.56L245.52 123.086H244.48L240.44 98.56L215.914 94.5203V93.4797L240.44 89.44Z" fill="white"/>
<path fill-rule="evenodd" clip-rule="evenodd" d="M245 68.2442L241.358 90.3576L219.244 94L241.358 97.6424L245 119.756L248.642 97.6424L270.756 94L248.642 90.3576L245 68.2442ZM240.44 89.44L244.48 64.9143H245.52L249.56 89.44L274.086 93.4797V94.5203L249.56 98.56L245.52 123.086H244.48L240.44 98.56L215.914 94.5203V93.4797L240.44 89.44Z" fill="white" fill-opacity="0.2"/>
<path d="M241.358 90.3576L245 68.2442L248.642 90.3576L270.756 94L248.642 97.6424L245 119.756L241.358 97.6424L219.244 94L241.358 90.3576Z" fill="white"/>
<path d="M241.358 90.3576L245 68.2442L248.642 90.3576L270.756 94L248.642 97.6424L245 119.756L241.358 97.6424L219.244 94L241.358 90.3576Z" fill="white" fill-opacity="0.2"/>
<path d="M245 490C380.31 490 490 380.31 490 245C490 109.69 380.31 0 245 0C109.69 0 0 109.69 0 245C0 380.31 109.69 490 245 490Z" fill="url(#paint0_linear_1_1803)"/>
<path d="M331.367 183.107C306.523 200.752 276.523 210.569 244.95 210.569C213.384 210.569 183.393 200.757 158.553 183.122C119.897 210.363 94.593 255.339 94.593 306.119C94.593 389.037 162.052 456.496 244.971 456.496C327.89 456.496 395.349 389.037 395.349 306.119C395.348 255.33 370.035 210.347 331.367 183.107V183.107ZM244.97 401.496C192.378 401.496 149.592 358.71 149.592 306.119C149.592 253.527 192.378 210.741 244.97 210.741C297.562 210.741 340.348 253.527 340.348 306.119C340.348 358.71 297.562 401.496 244.97 401.496Z" fill="white"/>
<path d="M270.348 210.741C266.046 210.741 261.812 211.033 257.659 211.587C304.274 217.811 340.348 257.829 340.348 306.119C340.348 354.409 304.274 394.426 257.659 400.65C261.812 401.204 266.046 401.496 270.348 401.496C322.94 401.496 365.726 358.71 365.726 306.119C365.726 253.527 322.94 210.741 270.348 210.741Z" fill="#EDEDED"/>
<path d="M119.97 306.119C119.97 260.493 140.399 219.553 172.587 191.955C167.752 189.278 163.068 186.328 158.552 183.122C119.896 210.363 94.592 255.339 94.592 306.119C94.592 389.037 162.051 456.496 244.97 456.496C249.244 456.496 253.474 456.307 257.659 455.955C180.657 449.491 119.97 384.763 119.97 306.119V306.119Z" fill="#EDEDED"/>
<path d="M467.899 43.9965C467.892 38.2685 463.083 33.6615 457.366 34.0195C403.843 37.3735 355.049 66.2035 325.319 112.579C307.659 140.124 277.615 156.569 244.95 156.569C212.285 156.569 182.241 140.124 164.582 112.58C134.852 66.2065 86.062 37.3775 32.543 34.0205C26.823 33.6615 22.011 38.2745 22.01 44.0065L22.002 79.1165C22.008 84.2855 25.95 88.6415 31.102 89.0605C66.356 91.9255 98.466 111.357 118.28 142.265C146.102 185.661 193.456 211.57 244.95 211.57C296.444 211.57 343.798 185.661 371.621 142.264C391.433 111.36 423.538 91.9285 458.838 89.0605C464 88.6415 467.945 84.2725 467.94 79.0945L467.899 43.9965Z" fill="white"/>
<path d="M269.918 194.569C218.424 194.569 171.07 168.66 143.248 125.264C123.434 94.3556 91.324 74.9246 56.07 72.0596C50.918 71.6406 46.976 67.2856 46.97 62.1156L46.976 35.5626C42.21 34.8446 37.397 34.3246 32.542 34.0206C26.822 33.6616 22.01 38.2746 22.009 44.0066L22 79.1166C22.006 84.2856 25.948 88.6416 31.1 89.0606C66.354 91.9256 98.464 111.357 118.278 142.265C146.1 185.661 193.454 211.57 244.948 211.57C280.919 211.57 314.859 198.914 341.543 176.5C319.933 188.199 295.436 194.569 269.918 194.569Z" fill="#EDEDED"/>
<defs>
<linearGradient id="paint0_linear_1_1803" x1="54.0256" y1="307.067" x2="441.031" y2="305.617" gradientUnits="userSpaceOnUse">
<stop stop-color="#E38BF1"/>
<stop offset="0.44614" stop-color="#AA75E0"/>
<stop offset="0.985435" stop-color="#4640EE"/>
</linearGradient>
</defs>
</svg>
