<svg width="490" height="490" viewBox="0 0 490 490" fill="none" xmlns="http://www.w3.org/2000/svg">
<path d="M245 490C380.31 490 490 380.31 490 245C490 109.69 380.31 0 245 0C109.69 0 0 109.69 0 245C0 380.31 109.69 490 245 490Z" fill="url(#paint0_linear_1_1924)"/>
<path d="M152.237 392.658L133.342 373.763C132.325 372.746 130.675 372.746 129.658 373.763L110.763 392.658C109.746 393.675 109.746 395.325 110.763 396.342L129.658 415.237C130.675 416.254 132.325 416.254 133.342 415.237L152.237 396.342C153.254 395.325 153.254 393.675 152.237 392.658Z" fill="#BFC7F0"/>
<path d="M371.298 366.304L358.697 353.703C357.76 352.766 356.241 352.766 355.304 353.703L342.703 366.304C341.766 367.241 341.766 368.76 342.703 369.697L355.304 382.298C356.241 383.235 357.76 383.235 358.697 382.298L371.298 369.697C372.235 368.76 372.235 367.24 371.298 366.304Z" fill="#BFC7F0"/>
<path d="M44.2978 260.304L31.6968 247.703C30.7598 246.766 29.2407 246.766 28.3037 247.703L15.7027 260.304C14.7657 261.241 14.7657 262.76 15.7027 263.697L28.3037 276.298C29.2407 277.235 30.7598 277.235 31.6968 276.298L44.2978 263.697C45.2348 262.759 45.2348 261.241 44.2978 260.304Z" fill="#BFC7F0"/>
<path fill-rule="evenodd" clip-rule="evenodd" d="M198.5 14.9194L195.307 34.3066L175.919 37.5L195.307 40.6934L198.5 60.0806L201.693 40.6934L221.081 37.5L201.693 34.3066L198.5 14.9194ZM194.502 33.5021L198.044 12H198.956L202.498 33.5021L224 37.0439V37.9561L202.498 41.4979L198.956 63H198.044L194.502 41.4979L173 37.9561V37.0439L194.502 33.5021Z" fill="white"/>
<path fill-rule="evenodd" clip-rule="evenodd" d="M198.5 14.9194L195.307 34.3066L175.919 37.5L195.307 40.6934L198.5 60.0806L201.693 40.6934L221.081 37.5L201.693 34.3066L198.5 14.9194ZM194.502 33.5021L198.044 12H198.956L202.498 33.5021L224 37.0439V37.9561L202.498 41.4979L198.956 63H198.044L194.502 41.4979L173 37.9561V37.0439L194.502 33.5021Z" fill="white" fill-opacity="0.2"/>
<path d="M195.307 34.3066L198.5 14.9194L201.693 34.3066L221.081 37.5L201.693 40.6934L198.5 60.0806L195.307 40.6934L175.919 37.5L195.307 34.3066Z" fill="white"/>
<path d="M195.307 34.3066L198.5 14.9194L201.693 34.3066L221.081 37.5L201.693 40.6934L198.5 60.0806L195.307 40.6934L175.919 37.5L195.307 34.3066Z" fill="white" fill-opacity="0.2"/>
<path d="M455.789 414.406L445.762 410.567C422.566 401.687 402.249 387.352 386.231 368.712L383.712 369.239L341.966 398.14L340.822 400.148C360.06 423.867 384.232 442.8 411.861 455.835C428.152 443.872 442.915 429.952 455.789 414.406Z" fill="#EDEDED"/>
<path d="M375.088 410.117C370.668 406.048 370.903 398.99 375.515 395.14L395.448 378.499C392.239 375.384 389.162 372.122 386.231 368.712L383.712 369.239L341.966 398.14L340.822 400.148C360.06 423.867 384.232 442.8 411.861 455.835C416.795 452.212 421.589 448.411 426.232 444.437C407.531 435.666 390.313 424.131 375.088 410.117Z" fill="white"/>
<path d="M39 51.0969H10C4.477 51.0969 0 55.5739 0 61.0969V96.0969C0 101.62 4.477 106.097 10 106.097H39C49.631 106.097 58.25 114.716 58.25 125.347V137.836H59.25C59.25 111.288 71.381 87.5209 90.388 71.7819C77.047 58.9789 58.95 51.0969 39 51.0969Z" fill="white"/>
<path d="M25.612 96.0969V61.0969C25.612 55.5739 30.089 51.0969 35.612 51.0969H10C4.477 51.0969 0 55.5739 0 61.0969V96.0969C0 101.62 4.477 106.097 10 106.097H35.612C30.089 106.097 25.612 101.62 25.612 96.0969Z" fill="white"/>
<path d="M176.728 137.835H177.728C177.728 113.156 188.223 90.893 204.968 75.235C189.429 60.34 168.375 51.156 145.216 51.096C97.382 50.974 58.25 91.149 58.25 138.983V362.672C58.25 368.195 62.727 372.672 68.25 372.672H103.25C108.773 372.672 113.25 368.195 113.25 362.672V138.511C113.25 121.24 126.766 106.623 144.029 106.111C161.966 105.578 176.728 120.015 176.728 137.835Z" fill="white"/>
<path d="M83.282 362.672V138.983C83.282 95.444 115.704 58.255 157.598 52.02C153.553 51.428 149.42 51.108 145.216 51.097C97.382 50.974 58.25 91.149 58.25 138.983V362.672C58.25 368.195 62.727 372.672 68.25 372.672H93.282C87.759 372.672 83.282 368.195 83.282 362.672Z" fill="#EDEDED"/>
<path d="M295.206 138.511V218.599H296.206C296.206 181.782 318.483 149.889 350.182 135.973C349.181 88.7189 310.205 50.6399 262.611 51.1019C214.86 51.5649 176.728 91.1889 176.728 138.943V362.673C176.728 368.196 181.205 372.673 186.728 372.673H221.728C227.251 372.673 231.728 368.196 231.728 362.673V137.835C231.728 120.015 246.49 105.578 264.428 106.111C281.69 106.624 295.206 121.24 295.206 138.511Z" fill="white"/>
<path d="M320.478 138.511C320.478 121.24 306.962 106.623 289.699 106.111C284.836 105.967 280.21 106.93 276.045 108.755C287.384 113.783 295.206 125.375 295.206 138.511V218.599H296.206C296.206 194.9 305.446 173.251 320.478 157.114V138.511Z" fill="#EDEDED"/>
<path d="M202 362.672V138.942C202 95.182 234.023 58.255 276.123 52.027C271.716 51.38 267.205 51.057 262.611 51.101C214.86 51.564 176.728 91.188 176.728 138.942V362.672C176.728 368.195 181.205 372.672 186.728 372.672H212C206.477 372.672 202 368.195 202 362.672Z" fill="#EDEDED"/>
<path d="M314.22 352.888L357.207 323.128L358.583 320.959C353.058 305.241 350.206 288.627 350.206 271.669V217.453C350.206 198.291 365.717 182.695 384.841 182.535L385.841 178.824V130.557L384.841 127.528V127.526C335.332 128.005 295.206 169.087 295.206 218.599V271.669C295.206 299.967 301.002 327.568 312.158 353.099L314.22 352.888Z" fill="#EDEDED"/>
<path d="M320.674 271.669V218.599C320.674 177.571 347.228 145.395 384.841 134.25L385.841 130.557L384.841 127.528V127.526C335.332 128.005 295.206 169.087 295.206 218.599V271.669C295.206 299.967 301.002 327.568 312.158 353.099L314.219 352.888L332.528 340.212C324.72 318.379 320.674 295.269 320.674 271.669Z" fill="white"/>
<path d="M384.841 127.528V182.535C385.043 182.545 387.238 182.584 387.441 182.597C405.907 183.789 420.068 199.545 420.068 218.049V218.095C420.068 255.851 401.535 291.223 370.492 312.715L244.232 400.126C239.691 403.27 238.559 409.499 241.702 414.04L261.624 442.817C264.768 447.358 270.997 448.49 275.538 445.347L401.798 357.936C447.677 326.173 475.068 273.896 475.068 218.096V217.454C475.068 167.766 434.564 127.368 384.841 127.528Z" fill="white"/>
<path fill-rule="evenodd" clip-rule="evenodd" d="M261 330.061L258.746 343.746L245.061 346L258.746 348.254L261 361.939L263.254 348.254L276.939 346L263.254 343.746L261 330.061ZM258.178 343.178L260.678 328H261.322L263.822 343.178L279 345.678V346.322L263.822 348.822L261.322 364H260.678L258.178 348.822L243 346.322V345.678L258.178 343.178Z" fill="white"/>
<path fill-rule="evenodd" clip-rule="evenodd" d="M261 330.061L258.746 343.746L245.061 346L258.746 348.254L261 361.939L263.254 348.254L276.939 346L263.254 343.746L261 330.061ZM258.178 343.178L260.678 328H261.322L263.822 343.178L279 345.678V346.322L263.822 348.822L261.322 364H260.678L258.178 348.822L243 346.322V345.678L258.178 343.178Z" fill="white" fill-opacity="0.2"/>
<path d="M258.746 343.746L261 330.061L263.254 343.746L276.939 346L263.254 348.254L261 361.939L258.746 348.254L245.061 346L258.746 343.746Z" fill="white"/>
<path d="M258.746 343.746L261 330.061L263.254 343.746L276.939 346L263.254 348.254L261 361.939L258.746 348.254L245.061 346L258.746 343.746Z" fill="white" fill-opacity="0.2"/>
<path fill-rule="evenodd" clip-rule="evenodd" d="M204.564 423.469L201.863 439.863L185.469 442.564L201.863 445.264L204.564 461.658L207.264 445.264L223.658 442.564L207.264 439.863L204.564 423.469ZM201.183 439.183L204.178 421H204.949L207.944 439.183L226.127 442.178V442.949L207.944 445.944L204.949 464.127H204.178L201.183 445.944L183 442.949V442.178L201.183 439.183Z" fill="white"/>
<path fill-rule="evenodd" clip-rule="evenodd" d="M204.564 423.469L201.863 439.863L185.469 442.564L201.863 445.264L204.564 461.658L207.264 445.264L223.658 442.564L207.264 439.863L204.564 423.469ZM201.183 439.183L204.178 421H204.949L207.944 439.183L226.127 442.178V442.949L207.944 445.944L204.949 464.127H204.178L201.183 445.944L183 442.949V442.178L201.183 439.183Z" fill="white" fill-opacity="0.2"/>
<path d="M201.863 439.863L204.564 423.469L207.264 439.863L223.658 442.564L207.264 445.264L204.564 461.658L201.863 445.264L185.469 442.564L201.863 439.863Z" fill="white"/>
<path d="M201.863 439.863L204.564 423.469L207.264 439.863L223.658 442.564L207.264 445.264L204.564 461.658L201.863 445.264L185.469 442.564L201.863 439.863Z" fill="white" fill-opacity="0.2"/>
<path fill-rule="evenodd" clip-rule="evenodd" d="M364.564 65.4688L361.863 81.8631L345.469 84.5635L361.863 87.2639L364.564 103.658L367.264 87.2639L383.658 84.5635L367.264 81.8631L364.564 65.4688ZM361.183 81.1828L364.178 63H364.949L367.944 81.1828L386.127 84.1778V84.9492L367.944 87.9442L364.949 106.127H364.178L361.183 87.9442L343 84.9492V84.1778L361.183 81.1828Z" fill="white"/>
<path fill-rule="evenodd" clip-rule="evenodd" d="M364.564 65.4688L361.863 81.8631L345.469 84.5635L361.863 87.2639L364.564 103.658L367.264 87.2639L383.658 84.5635L367.264 81.8631L364.564 65.4688ZM361.183 81.1828L364.178 63H364.949L367.944 81.1828L386.127 84.1778V84.9492L367.944 87.9442L364.949 106.127H364.178L361.183 87.9442L343 84.9492V84.1778L361.183 81.1828Z" fill="white" fill-opacity="0.2"/>
<path d="M361.863 81.8631L364.564 65.4688L367.264 81.8631L383.658 84.5635L367.264 87.2639L364.564 103.658L361.863 87.2639L345.469 84.5635L361.863 81.8631Z" fill="white"/>
<path d="M361.863 81.8631L364.564 65.4688L367.264 81.8631L383.658 84.5635L367.264 87.2639L364.564 103.658L361.863 87.2639L345.469 84.5635L361.863 81.8631Z" fill="white" fill-opacity="0.2"/>
<defs>
<linearGradient id="paint0_linear_1_1924" x1="54.0256" y1="307.067" x2="441.031" y2="305.617" gradientUnits="userSpaceOnUse">
<stop stop-color="#E38BF1"/>
<stop offset="0.44614" stop-color="#AA75E0"/>
<stop offset="0.985435" stop-color="#4640EE"/>
</linearGradient>
</defs>
</svg>
