<svg width="512" height="490" viewBox="0 0 512 490" fill="none" xmlns="http://www.w3.org/2000/svg">
<path d="M256 490C391.31 490 501 380.31 501 245C501 109.69 391.31 0 256 0C120.69 0 11 109.69 11 245C11 380.31 120.69 490 256 490Z" fill="url(#paint0_linear_1_1871)"/>
<path d="M169.636 350.636L147.879 328.879C146.707 327.707 144.808 327.707 143.636 328.879L121.879 350.636C120.707 351.808 120.707 353.707 121.879 354.879L143.636 376.636C144.808 377.808 146.707 377.808 147.879 376.636L169.636 354.879C170.808 353.707 170.808 351.808 169.636 350.636Z" fill="#BFC7F0"/>
<path d="M382.298 366.304L369.697 353.703C368.76 352.766 367.241 352.766 366.304 353.703L353.703 366.304C352.766 367.241 352.766 368.76 353.703 369.697L366.304 382.298C367.241 383.235 368.76 383.235 369.697 382.298L382.298 369.697C383.235 368.76 383.235 367.24 382.298 366.304Z" fill="#BFC7F0"/>
<path fill-rule="evenodd" clip-rule="evenodd" d="M449.5 271.919L446.307 291.307L426.919 294.5L446.307 297.693L449.5 317.081L452.693 297.693L472.081 294.5L452.693 291.307L449.5 271.919ZM445.502 290.502L449.044 269H449.956L453.498 290.502L475 294.044V294.956L453.498 298.498L449.956 320H449.044L445.502 298.498L424 294.956V294.044L445.502 290.502Z" fill="white"/>
<path fill-rule="evenodd" clip-rule="evenodd" d="M449.5 271.919L446.307 291.307L426.919 294.5L446.307 297.693L449.5 317.081L452.693 297.693L472.081 294.5L452.693 291.307L449.5 271.919ZM445.502 290.502L449.044 269H449.956L453.498 290.502L475 294.044V294.956L453.498 298.498L449.956 320H449.044L445.502 298.498L424 294.956V294.044L445.502 290.502Z" fill="white" fill-opacity="0.2"/>
<path d="M446.307 291.307L449.5 271.919L452.693 291.307L472.081 294.5L452.693 297.693L449.5 317.081L446.307 297.693L426.919 294.5L446.307 291.307Z" fill="white"/>
<path d="M446.307 291.307L449.5 271.919L452.693 291.307L472.081 294.5L452.693 297.693L449.5 317.081L446.307 297.693L426.919 294.5L446.307 291.307Z" fill="white" fill-opacity="0.2"/>
<path d="M78.2978 326.304L65.6968 313.703C64.7598 312.766 63.2407 312.766 62.3037 313.703L49.7027 326.304C48.7657 327.241 48.7657 328.76 49.7027 329.697L62.3037 342.298C63.2407 343.235 64.7598 343.235 65.6968 342.298L78.2978 329.697C79.2348 328.759 79.2348 327.241 78.2978 326.304Z" fill="#BFC7F0"/>
<path fill-rule="evenodd" clip-rule="evenodd" d="M239 41.2442L235.358 63.3576L213.244 67L235.358 70.6424L239 92.7557L242.642 70.6424L264.756 67L242.642 63.3576L239 41.2442ZM234.44 62.44L238.48 37.9143H239.52L243.56 62.44L268.086 66.4797V67.5203L243.56 71.56L239.52 96.0857H238.48L234.44 71.56L209.914 67.5203V66.4797L234.44 62.44Z" fill="white"/>
<path fill-rule="evenodd" clip-rule="evenodd" d="M239 41.2442L235.358 63.3576L213.244 67L235.358 70.6424L239 92.7557L242.642 70.6424L264.756 67L242.642 63.3576L239 41.2442ZM234.44 62.44L238.48 37.9143H239.52L243.56 62.44L268.086 66.4797V67.5203L243.56 71.56L239.52 96.0857H238.48L234.44 71.56L209.914 67.5203V66.4797L234.44 62.44Z" fill="white" fill-opacity="0.2"/>
<path d="M235.358 63.3576L239 41.2442L242.642 63.3576L264.756 67L242.642 70.6424L239 92.7557L235.358 70.6424L213.244 67L235.358 63.3576Z" fill="white"/>
<path d="M235.358 63.3576L239 41.2442L242.642 63.3576L264.756 67L242.642 70.6424L239 92.7557L235.358 70.6424L213.244 67L235.358 63.3576Z" fill="white" fill-opacity="0.2"/>
<path d="M404.345 45.5732H403.537C353.922 45.5732 310.947 79.2112 299.032 127.374L256 301.314L255.58 303.02L283.453 415.2H284.483L352.423 140.583C358.251 117.026 379.27 100.573 403.537 100.573H403.622C431.351 100.573 454.925 121.746 456.865 149.407C457.751 162.035 454.23 174.171 447.013 184.101C444.142 188.051 444.628 193.518 448.082 196.971L473.039 221.925C477.251 226.137 484.153 225.726 487.917 221.109C503.52 201.974 512 178.252 512 153.229C512 93.8672 463.706 45.5732 404.345 45.5732Z" fill="white"/>
<path d="M281 311.247L281.42 309.541L324.452 135.601C336.367 87.4382 379.342 53.8002 428.957 53.8002H429.765C436.639 53.8002 443.361 54.4552 449.881 55.6932C436.043 49.2062 420.612 45.5732 404.345 45.5732H403.537C353.922 45.5732 310.947 79.2112 299.032 127.374L256 301.314L255.58 303.02L283.453 415.2H284.483L295.632 370.136L281 311.247Z" fill="#EDEDED"/>
<path d="M473.503 205.198C470.05 201.745 469.563 196.279 472.434 192.328C479.651 182.397 483.172 170.261 482.286 157.634C480.426 131.108 458.666 110.561 432.43 108.919C446.121 117.578 455.662 132.24 456.866 149.407C457.752 162.035 454.231 174.171 447.014 184.101C444.143 188.051 444.629 193.518 448.083 196.971L473.04 221.925C477.252 226.137 484.154 225.726 487.918 221.109C488.143 220.833 488.352 220.546 488.574 220.268L473.503 205.198Z" fill="#EDEDED"/>
<path d="M212.968 127.375C201.052 79.2112 158.078 45.5732 108.463 45.5732H107.656C48.294 45.5732 0 93.8672 0 153.229C0 178.253 8.48 201.974 24.081 221.109C27.845 225.726 34.747 226.137 38.96 221.925L63.916 196.969C67.369 193.516 67.855 188.05 64.984 184.1C57.769 174.171 54.249 162.035 55.134 149.407C57.074 121.746 80.648 100.573 108.376 100.573H108.462C132.73 100.573 153.749 117.026 159.577 140.583L229.304 422.427H282.695L284.483 415.2L212.968 127.375Z" fill="#EDEDED"/>
<path d="M25.517 153.229C25.517 98.0602 67.233 52.4582 120.777 46.2912C116.727 45.8302 112.621 45.5732 108.463 45.5732H107.656C48.294 45.5732 0 93.8672 0 153.229C0 178.253 8.48 201.974 24.081 221.109C27.845 225.726 34.747 226.137 38.96 221.925L45.365 215.519C32.483 197.44 25.517 175.874 25.517 153.229Z" fill="white"/>
<path d="M185.094 140.583C179.266 117.026 158.247 100.573 133.979 100.573H133.893C129.504 100.573 125.221 101.107 121.11 102.109C139.765 106.699 154.793 121.242 159.578 140.582L229.305 422.426H254.822L185.094 140.583Z" fill="white"/>
<defs>
<linearGradient id="paint0_linear_1_1871" x1="65.0256" y1="307.067" x2="452.031" y2="305.617" gradientUnits="userSpaceOnUse">
<stop stop-color="#E38BF1"/>
<stop offset="0.44614" stop-color="#AA75E0"/>
<stop offset="0.985435" stop-color="#4640EE"/>
</linearGradient>
</defs>
</svg>
