<svg width="490" height="494" viewBox="0 0 490 494" fill="none" xmlns="http://www.w3.org/2000/svg">
<path d="M245 490C380.31 490 490 380.31 490 245C490 109.69 380.31 0 245 0C109.69 0 0 109.69 0 245C0 380.31 109.69 490 245 490Z" fill="url(#paint0_linear_1_1993)"/>
<path d="M161.237 103.658L142.342 84.7633C141.325 83.7456 139.675 83.7456 138.658 84.7633L119.763 103.658C118.746 104.675 118.746 106.325 119.763 107.342L138.658 126.237C139.675 127.254 141.325 127.254 142.342 126.237L161.237 107.342C162.254 106.325 162.254 104.675 161.237 103.658Z" fill="#BFC7F0"/>
<path d="M371.298 366.304L358.697 353.703C357.76 352.766 356.241 352.766 355.304 353.703L342.703 366.304C341.766 367.241 341.766 368.76 342.703 369.697L355.304 382.298C356.241 383.235 357.76 383.235 358.697 382.298L371.298 369.697C372.235 368.76 372.235 367.24 371.298 366.304Z" fill="#BFC7F0"/>
<path d="M44.2978 260.304L31.6968 247.703C30.7598 246.766 29.2407 246.766 28.3037 247.703L15.7027 260.304C14.7657 261.241 14.7657 262.76 15.7027 263.697L28.3037 276.298C29.2407 277.235 30.7598 277.235 31.6968 276.298L44.2978 263.697C45.2348 262.759 45.2348 261.241 44.2978 260.304Z" fill="#BFC7F0"/>
<path fill-rule="evenodd" clip-rule="evenodd" d="M202.5 149.919L199.307 169.307L179.919 172.5L199.307 175.693L202.5 195.081L205.693 175.693L225.081 172.5L205.693 169.307L202.5 149.919ZM198.502 168.502L202.044 147H202.956L206.498 168.502L228 172.044V172.956L206.498 176.498L202.956 198H202.044L198.502 176.498L177 172.956V172.044L198.502 168.502Z" fill="white"/>
<path fill-rule="evenodd" clip-rule="evenodd" d="M202.5 149.919L199.307 169.307L179.919 172.5L199.307 175.693L202.5 195.081L205.693 175.693L225.081 172.5L205.693 169.307L202.5 149.919ZM198.502 168.502L202.044 147H202.956L206.498 168.502L228 172.044V172.956L206.498 176.498L202.956 198H202.044L198.502 176.498L177 172.956V172.044L198.502 168.502Z" fill="white" fill-opacity="0.2"/>
<path d="M199.307 169.307L202.5 149.919L205.693 169.307L225.081 172.5L205.693 175.693L202.5 195.081L199.307 175.693L179.919 172.5L199.307 169.307Z" fill="white"/>
<path d="M199.307 169.307L202.5 149.919L205.693 169.307L225.081 172.5L205.693 175.693L202.5 195.081L199.307 175.693L179.919 172.5L199.307 169.307Z" fill="white" fill-opacity="0.2"/>
<path d="M169.66 267.051H114.66V128.156C114.66 106.502 98.3159 87.9722 76.7399 86.1492C67.8959 85.4022 59.2129 87.4742 51.8149 91.9332C47.7579 94.3782 42.5229 93.5332 39.3439 90.0202L15.5909 63.7732C11.5879 59.3502 12.3089 52.4072 17.1629 48.9382C33.6839 37.1332 53.5499 30.8142 74.1019 31.0042C127.216 31.4962 169.661 75.5202 169.661 128.637V267.051H169.66Z" fill="white"/>
<path d="M48.0079 68.5411C44.4709 63.7371 45.8879 56.9021 51.0669 53.9401C68.6929 43.8601 89.0949 39.5741 109.523 41.8341C113.393 42.2621 117.18 42.9231 120.877 43.7911C107.082 35.8081 91.1429 31.1641 74.1019 31.0061C53.5499 30.8161 33.6839 37.1351 17.1629 48.9401C12.3089 52.4081 11.5879 59.3511 15.5909 63.7751L39.3449 90.0231C42.5239 93.5361 47.7579 94.3811 51.8159 91.9361C55.0009 90.0171 58.4249 88.5421 61.9969 87.5421L48.0079 68.5411Z" fill="#EDEDED"/>
<path d="M378.232 493.307C359.515 493.307 341.192 487.344 325.599 475.831C302.611 458.857 289.427 431.658 289.427 403.082V146.794C289.427 113.932 263.331 86.5099 230.473 86.0089C197.029 85.4989 169.66 112.556 169.66 145.885V309.12C169.66 314.643 165.183 319.12 159.66 319.12H124.66C119.137 319.12 114.66 314.643 114.66 309.12V147.149C114.66 83.7549 165.479 31.3679 228.872 31.0039C292.526 30.6379 344.427 82.3149 344.427 145.885V403.464C344.427 414.657 349.582 425.372 358.684 431.887C367.314 438.064 378.052 439.86 388.251 436.809C402.561 432.53 412.555 419.109 412.555 404.173H467.555C467.555 423.329 461.556 441.582 450.202 456.992C438.719 472.578 422.582 483.944 404.036 489.495C395.504 492.049 386.826 493.307 378.232 493.307Z" fill="white"/>
<path d="M413.647 436.809C427.957 432.53 437.951 419.109 437.951 404.173H412.556C412.556 418.075 403.895 430.66 391.158 435.787C398.232 438.662 406.087 439.07 413.647 436.809Z" fill="#EDEDED"/>
<path d="M140.056 309.12V147.148C140.056 87.8189 184.568 38.1329 242.24 31.7069C237.852 31.2219 233.393 30.9769 228.872 31.0029C165.479 31.3669 114.66 83.7539 114.66 147.148V309.119C114.66 314.642 119.137 319.119 124.66 319.119H150.056C144.533 319.12 140.056 314.642 140.056 309.12Z" fill="#EDEDED"/>
<path d="M350.995 475.831C328.007 458.857 314.823 431.658 314.823 403.082V146.794C314.823 113.932 288.727 86.5099 255.869 86.0089C251.184 85.9379 246.626 86.4249 242.238 87.3769C269.347 93.3329 289.428 117.969 289.428 146.794V403.082C289.428 431.658 302.612 458.857 325.6 475.831C341.193 487.344 359.515 493.307 378.232 493.307C382.478 493.307 386.744 492.997 391.004 492.379C376.756 490.306 363.057 484.737 350.995 475.831Z" fill="#EDEDED"/>
<path d="M252.308 426.7C234.003 426.7 215.664 422.623 198.7 414.409C193.446 411.865 191.549 405.322 194.542 400.31L212.589 370.091C215.194 365.73 220.622 364.086 225.285 366.103C247.037 375.514 272.386 372.997 291.998 358.938L328.632 332.677C353.443 314.892 385.982 310.957 413.553 322.406C426.597 327.823 438.228 336.408 447.189 347.234C460.322 363.102 467.555 383.241 467.555 403.942V404.173H412.555V403.942C412.555 393.782 408.348 386.567 404.819 382.303C401.497 378.289 397.339 375.227 392.46 373.201C382.322 368.992 370.144 370.592 360.676 377.379L324.042 403.64C302.669 418.961 277.522 426.699 252.308 426.7Z" fill="white"/>
<path d="M229.222 393.64C231.565 389.133 236.888 387.172 241.66 388.911C263.929 397.024 289.085 393.017 307.835 377.827L342.858 349.452C366.577 330.236 398.828 324.39 427.026 334.193C431.83 335.863 436.471 337.961 440.896 340.433C433.037 332.792 423.728 326.631 413.553 322.406C385.982 310.958 353.443 314.893 328.632 332.677L291.998 358.938C272.386 372.997 247.037 375.514 225.285 366.103C220.623 364.086 215.194 365.729 212.589 370.091L194.542 400.31C191.549 405.322 193.446 411.865 198.7 414.409C204.025 416.988 209.486 419.158 215.039 420.923L229.222 393.64Z" fill="#EDEDED"/>
<path fill-rule="evenodd" clip-rule="evenodd" d="M309 282.061L306.746 295.746L293.061 298L306.746 300.254L309 313.939L311.254 300.254L324.939 298L311.254 295.746L309 282.061ZM306.178 295.178L308.678 280H309.322L311.822 295.178L327 297.678V298.322L311.822 300.822L309.322 316H308.678L306.178 300.822L291 298.322V297.678L306.178 295.178Z" fill="white"/>
<path fill-rule="evenodd" clip-rule="evenodd" d="M309 282.061L306.746 295.746L293.061 298L306.746 300.254L309 313.939L311.254 300.254L324.939 298L311.254 295.746L309 282.061ZM306.178 295.178L308.678 280H309.322L311.822 295.178L327 297.678V298.322L311.822 300.822L309.322 316H308.678L306.178 300.822L291 298.322V297.678L306.178 295.178Z" fill="white" fill-opacity="0.2"/>
<path d="M306.746 295.746L309 282.061L311.254 295.746L324.939 298L311.254 300.254L309 313.939L306.746 300.254L293.061 298L306.746 295.746Z" fill="white"/>
<path d="M306.746 295.746L309 282.061L311.254 295.746L324.939 298L311.254 300.254L309 313.939L306.746 300.254L293.061 298L306.746 295.746Z" fill="white" fill-opacity="0.2"/>
<path fill-rule="evenodd" clip-rule="evenodd" d="M204.564 423.469L201.863 439.863L185.469 442.564L201.863 445.264L204.564 461.658L207.264 445.264L223.658 442.564L207.264 439.863L204.564 423.469ZM201.183 439.183L204.178 421H204.949L207.944 439.183L226.127 442.178V442.949L207.944 445.944L204.949 464.127H204.178L201.183 445.944L183 442.949V442.178L201.183 439.183Z" fill="white"/>
<path fill-rule="evenodd" clip-rule="evenodd" d="M204.564 423.469L201.863 439.863L185.469 442.564L201.863 445.264L204.564 461.658L207.264 445.264L223.658 442.564L207.264 439.863L204.564 423.469ZM201.183 439.183L204.178 421H204.949L207.944 439.183L226.127 442.178V442.949L207.944 445.944L204.949 464.127H204.178L201.183 445.944L183 442.949V442.178L201.183 439.183Z" fill="white" fill-opacity="0.2"/>
<path d="M201.863 439.863L204.564 423.469L207.264 439.863L223.658 442.564L207.264 445.264L204.564 461.658L201.863 445.264L185.469 442.564L201.863 439.863Z" fill="white"/>
<path d="M201.863 439.863L204.564 423.469L207.264 439.863L223.658 442.564L207.264 445.264L204.564 461.658L201.863 445.264L185.469 442.564L201.863 439.863Z" fill="white" fill-opacity="0.2"/>
<path fill-rule="evenodd" clip-rule="evenodd" d="M364.564 65.4688L361.863 81.8631L345.469 84.5635L361.863 87.2639L364.564 103.658L367.264 87.2639L383.658 84.5635L367.264 81.8631L364.564 65.4688ZM361.183 81.1828L364.178 63H364.949L367.944 81.1828L386.127 84.1778V84.9492L367.944 87.9442L364.949 106.127H364.178L361.183 87.9442L343 84.9492V84.1778L361.183 81.1828Z" fill="white"/>
<path fill-rule="evenodd" clip-rule="evenodd" d="M364.564 65.4688L361.863 81.8631L345.469 84.5635L361.863 87.2639L364.564 103.658L367.264 87.2639L383.658 84.5635L367.264 81.8631L364.564 65.4688ZM361.183 81.1828L364.178 63H364.949L367.944 81.1828L386.127 84.1778V84.9492L367.944 87.9442L364.949 106.127H364.178L361.183 87.9442L343 84.9492V84.1778L361.183 81.1828Z" fill="white" fill-opacity="0.2"/>
<path d="M361.863 81.8631L364.564 65.4688L367.264 81.8631L383.658 84.5635L367.264 87.2639L364.564 103.658L361.863 87.2639L345.469 84.5635L361.863 81.8631Z" fill="white"/>
<path d="M361.863 81.8631L364.564 65.4688L367.264 81.8631L383.658 84.5635L367.264 87.2639L364.564 103.658L361.863 87.2639L345.469 84.5635L361.863 81.8631Z" fill="white" fill-opacity="0.2"/>
<defs>
<linearGradient id="paint0_linear_1_1993" x1="54.0256" y1="307.067" x2="441.031" y2="305.617" gradientUnits="userSpaceOnUse">
<stop stop-color="#E38BF1"/>
<stop offset="0.44614" stop-color="#AA75E0"/>
<stop offset="0.985435" stop-color="#4640EE"/>
</linearGradient>
</defs>
</svg>
