<svg width="501" height="490" viewBox="0 0 501 490" fill="none" xmlns="http://www.w3.org/2000/svg">
<path d="M245 490C380.31 490 490 380.31 490 245C490 109.69 380.31 0 245 0C109.69 0 0 109.69 0 245C0 380.31 109.69 490 245 490Z" fill="url(#paint0_linear_1_2024)"/>
<path d="M161.237 103.658L142.342 84.7633C141.325 83.7456 139.675 83.7456 138.658 84.7633L119.763 103.658C118.746 104.675 118.746 106.325 119.763 107.342L138.658 126.237C139.675 127.254 141.325 127.254 142.342 126.237L161.237 107.342C162.254 106.325 162.254 104.675 161.237 103.658Z" fill="#BFC7F0"/>
<path d="M371.298 366.304L358.697 353.703C357.76 352.766 356.241 352.766 355.304 353.703L342.703 366.304C341.766 367.241 341.766 368.76 342.703 369.697L355.304 382.298C356.241 383.235 357.76 383.235 358.697 382.298L371.298 369.697C372.235 368.76 372.235 367.24 371.298 366.304Z" fill="#BFC7F0"/>
<path d="M44.2978 260.304L31.6968 247.703C30.7598 246.766 29.2407 246.766 28.3037 247.703L15.7027 260.304C14.7657 261.241 14.7657 262.76 15.7027 263.697L28.3037 276.298C29.2407 277.235 30.7598 277.235 31.6968 276.298L44.2978 263.697C45.2348 262.759 45.2348 261.241 44.2978 260.304Z" fill="#BFC7F0"/>
<path fill-rule="evenodd" clip-rule="evenodd" d="M202.5 149.919L199.307 169.307L179.919 172.5L199.307 175.693L202.5 195.081L205.693 175.693L225.081 172.5L205.693 169.307L202.5 149.919ZM198.502 168.502L202.044 147H202.956L206.498 168.502L228 172.044V172.956L206.498 176.498L202.956 198H202.044L198.502 176.498L177 172.956V172.044L198.502 168.502Z" fill="white"/>
<path fill-rule="evenodd" clip-rule="evenodd" d="M202.5 149.919L199.307 169.307L179.919 172.5L199.307 175.693L202.5 195.081L205.693 175.693L225.081 172.5L205.693 169.307L202.5 149.919ZM198.502 168.502L202.044 147H202.956L206.498 168.502L228 172.044V172.956L206.498 176.498L202.956 198H202.044L198.502 176.498L177 172.956V172.044L198.502 168.502Z" fill="white" fill-opacity="0.2"/>
<path d="M199.307 169.307L202.5 149.919L205.693 169.307L225.081 172.5L205.693 175.693L202.5 195.081L199.307 175.693L179.919 172.5L199.307 169.307Z" fill="white"/>
<path d="M199.307 169.307L202.5 149.919L205.693 169.307L225.081 172.5L205.693 175.693L202.5 195.081L199.307 175.693L179.919 172.5L199.307 169.307Z" fill="white" fill-opacity="0.2"/>
<path d="M100.82 173.493C82.7261 178.106 76.4581 184.374 71.8451 202.468C71.0791 205.471 66.8031 205.471 66.0371 202.468C61.4241 184.374 55.1561 178.106 37.0621 173.493C34.0591 172.727 34.0591 168.451 37.0621 167.685C55.1561 163.072 61.4241 156.805 66.0371 138.711C66.8031 135.708 71.0791 135.708 71.8451 138.711C76.4581 156.805 82.7261 163.072 100.82 167.685C103.824 168.45 103.824 172.727 100.82 173.493Z" fill="white"/>
<path d="M51.375 162.266C47.631 164.486 42.983 166.176 37.063 167.685C34.06 168.451 34.06 172.727 37.063 173.493C55.157 178.106 61.425 184.374 66.038 202.468C66.804 205.472 71.08 205.472 71.846 202.468C73.355 196.548 75.045 191.9 77.265 188.156C72.92 172.712 66.818 166.61 51.375 162.266Z" fill="#F9F3F1"/>
<path d="M449.224 210.084L435.709 196.569C434.537 195.397 432.638 195.397 431.466 196.569L417.951 210.084C416.779 211.256 416.779 213.155 417.951 214.327L431.466 227.842C432.638 229.014 434.537 229.014 435.709 227.842L449.224 214.327C450.395 213.155 450.395 211.256 449.224 210.084Z" fill="white"/>
<path fill-rule="evenodd" clip-rule="evenodd" d="M309 282.061L306.746 295.746L293.061 298L306.746 300.254L309 313.939L311.254 300.254L324.939 298L311.254 295.746L309 282.061ZM306.178 295.178L308.678 280H309.322L311.822 295.178L327 297.678V298.322L311.822 300.822L309.322 316H308.678L306.178 300.822L291 298.322V297.678L306.178 295.178Z" fill="white"/>
<path fill-rule="evenodd" clip-rule="evenodd" d="M309 282.061L306.746 295.746L293.061 298L306.746 300.254L309 313.939L311.254 300.254L324.939 298L311.254 295.746L309 282.061ZM306.178 295.178L308.678 280H309.322L311.822 295.178L327 297.678V298.322L311.822 300.822L309.322 316H308.678L306.178 300.822L291 298.322V297.678L306.178 295.178Z" fill="white" fill-opacity="0.2"/>
<path d="M306.746 295.746L309 282.061L311.254 295.746L324.939 298L311.254 300.254L309 313.939L306.746 300.254L293.061 298L306.746 295.746Z" fill="white"/>
<path d="M306.746 295.746L309 282.061L311.254 295.746L324.939 298L311.254 300.254L309 313.939L306.746 300.254L293.061 298L306.746 295.746Z" fill="white" fill-opacity="0.2"/>
<path fill-rule="evenodd" clip-rule="evenodd" d="M204.564 423.469L201.863 439.863L185.469 442.564L201.863 445.264L204.564 461.658L207.264 445.264L223.658 442.564L207.264 439.863L204.564 423.469ZM201.183 439.183L204.178 421H204.949L207.944 439.183L226.127 442.178V442.949L207.944 445.944L204.949 464.127H204.178L201.183 445.944L183 442.949V442.178L201.183 439.183Z" fill="white"/>
<path fill-rule="evenodd" clip-rule="evenodd" d="M204.564 423.469L201.863 439.863L185.469 442.564L201.863 445.264L204.564 461.658L207.264 445.264L223.658 442.564L207.264 439.863L204.564 423.469ZM201.183 439.183L204.178 421H204.949L207.944 439.183L226.127 442.178V442.949L207.944 445.944L204.949 464.127H204.178L201.183 445.944L183 442.949V442.178L201.183 439.183Z" fill="white" fill-opacity="0.2"/>
<path d="M201.863 439.863L204.564 423.469L207.264 439.863L223.658 442.564L207.264 445.264L204.564 461.658L201.863 445.264L185.469 442.564L201.863 439.863Z" fill="white"/>
<path d="M201.863 439.863L204.564 423.469L207.264 439.863L223.658 442.564L207.264 445.264L204.564 461.658L201.863 445.264L185.469 442.564L201.863 439.863Z" fill="white" fill-opacity="0.2"/>
<path fill-rule="evenodd" clip-rule="evenodd" d="M364.564 65.4688L361.863 81.8631L345.469 84.5635L361.863 87.2639L364.564 103.658L367.264 87.2639L383.658 84.5635L367.264 81.8631L364.564 65.4688ZM361.183 81.1828L364.178 63H364.949L367.944 81.1828L386.127 84.1778V84.9492L367.944 87.9442L364.949 106.127H364.178L361.183 87.9442L343 84.9492V84.1778L361.183 81.1828Z" fill="white"/>
<path fill-rule="evenodd" clip-rule="evenodd" d="M364.564 65.4688L361.863 81.8631L345.469 84.5635L361.863 87.2639L364.564 103.658L367.264 87.2639L383.658 84.5635L367.264 81.8631L364.564 65.4688ZM361.183 81.1828L364.178 63H364.949L367.944 81.1828L386.127 84.1778V84.9492L367.944 87.9442L364.949 106.127H364.178L361.183 87.9442L343 84.9492V84.1778L361.183 81.1828Z" fill="white" fill-opacity="0.2"/>
<path d="M361.863 81.8631L364.564 65.4688L367.264 81.8631L383.658 84.5635L367.264 87.2639L364.564 103.658L361.863 87.2639L345.469 84.5635L361.863 81.8631Z" fill="white"/>
<path d="M361.863 81.8631L364.564 65.4688L367.264 81.8631L383.658 84.5635L367.264 87.2639L364.564 103.658L361.863 87.2639L345.469 84.5635L361.863 81.8631Z" fill="white" fill-opacity="0.2"/>
<path d="M242.96 122.002C295.901 121.678 339.314 162.613 341.948 215.489C343.529 247.23 330.027 277.249 305.465 297.121C296.408 304.448 292.951 316.687 296.836 327.67C300.768 338.787 311.567 346 323.358 346H500.573C506.096 346 510.573 341.523 510.573 336V301C510.573 295.477 506.096 291 500.573 291H379.992C391.105 269.518 397.073 245.444 397.073 220.5C397.073 135.86 328.213 67 243.573 67C158.933 67 90.073 135.86 90.073 220.5C90.073 245.444 96.041 269.518 107.154 291H3C6.694 310.227 12.625 328.656 20.531 346H163.789C175.581 346 186.379 338.787 190.311 327.67C194.196 316.688 190.738 304.448 181.682 297.121C158.416 278.298 145.073 250.371 145.073 220.5C145.073 166.392 188.927 122.333 242.96 122.002Z" fill="white"/>
<path d="M125.653 291C132.741 291 137.502 283.84 134.885 277.252C127.813 259.449 124.073 240.247 124.073 220.5C124.073 141.606 183.904 76.433 260.573 67.946C254.989 67.328 249.319 67 243.573 67C158.933 67 90.073 135.86 90.073 220.5C90.073 245.444 96.041 269.518 107.154 291H125.653Z" fill="#EDEDED"/>
<path d="M330.835 327.67C326.95 316.688 330.408 304.448 339.464 297.121C364.026 277.249 373.347 243.048 371.765 211.307C369.132 158.431 320.573 121.5 276.96 122.002C271.403 122.066 265.955 122.54 260.649 123.462C305.269 131.173 339.614 168.641 341.948 215.489C343.529 247.23 330.027 277.249 305.464 297.121C296.407 304.448 292.95 316.687 296.835 327.67C300.767 338.787 311.566 346 323.357 346H357.357C345.566 346 334.767 338.787 330.835 327.67Z" fill="#EDEDED"/>
<path d="M3 291C6.694 310.227 12.625 328.656 20.531 346H54.531C46.625 328.656 40.695 310.227 37 291H3Z" fill="#EDEDED"/>
<path d="M500.573 387H44.2651C59.3601 408.075 77.7171 426.649 98.5941 442H500.573C506.096 442 510.573 437.523 510.573 432V397C510.573 391.477 506.096 387 500.573 387Z" fill="white"/>
<path d="M145.441 414.378C134.661 406.093 124.595 396.929 115.338 387H44.2651C59.3601 408.075 77.7171 426.649 98.5941 442H500.573C506.096 442 510.573 437.523 510.573 432V417.5H154.613C151.295 417.5 148.071 416.4 145.441 414.378Z" fill="#EDEDED"/>
<defs>
<linearGradient id="paint0_linear_1_2024" x1="54.0256" y1="307.067" x2="441.031" y2="305.617" gradientUnits="userSpaceOnUse">
<stop stop-color="#E38BF1"/>
<stop offset="0.44614" stop-color="#AA75E0"/>
<stop offset="0.985435" stop-color="#4640EE"/>
</linearGradient>
</defs>
</svg>
