<svg width="490" height="501" viewBox="0 0 490 501" fill="none" xmlns="http://www.w3.org/2000/svg">
<path d="M245 501C380.31 501 490 391.31 490 256C490 120.69 380.31 11 245 11C109.69 11 0 120.69 0 256C0 391.31 109.69 501 245 501Z" fill="url(#paint0_linear_1_1893)"/>
<path d="M158.636 361.636L136.879 339.879C135.707 338.707 133.808 338.707 132.636 339.879L110.879 361.636C109.707 362.808 109.707 364.707 110.879 365.879L132.636 387.636C133.808 388.808 135.707 388.808 136.879 387.636L158.636 365.879C159.808 364.707 159.808 362.808 158.636 361.636Z" fill="#BFC7F0"/>
<path d="M371.298 377.304L358.697 364.703C357.76 363.766 356.241 363.766 355.304 364.703L342.703 377.304C341.766 378.241 341.766 379.76 342.703 380.697L355.304 393.298C356.241 394.235 357.76 394.235 358.697 393.298L371.298 380.697C372.235 379.76 372.235 378.24 371.298 377.304Z" fill="#BFC7F0"/>
<path fill-rule="evenodd" clip-rule="evenodd" d="M438.5 282.919L435.307 302.307L415.919 305.5L435.307 308.693L438.5 328.081L441.693 308.693L461.081 305.5L441.693 302.307L438.5 282.919ZM434.502 301.502L438.044 280H438.956L442.498 301.502L464 305.044V305.956L442.498 309.498L438.956 331H438.044L434.502 309.498L413 305.956V305.044L434.502 301.502Z" fill="white"/>
<path fill-rule="evenodd" clip-rule="evenodd" d="M438.5 282.919L435.307 302.307L415.919 305.5L435.307 308.693L438.5 328.081L441.693 308.693L461.081 305.5L441.693 302.307L438.5 282.919ZM434.502 301.502L438.044 280H438.956L442.498 301.502L464 305.044V305.956L442.498 309.498L438.956 331H438.044L434.502 309.498L413 305.956V305.044L434.502 301.502Z" fill="white" fill-opacity="0.2"/>
<path d="M435.307 302.307L438.5 282.919L441.693 302.307L461.081 305.5L441.693 308.693L438.5 328.081L435.307 308.693L415.919 305.5L435.307 302.307Z" fill="white"/>
<path d="M435.307 302.307L438.5 282.919L441.693 302.307L461.081 305.5L441.693 308.693L438.5 328.081L435.307 308.693L415.919 305.5L435.307 302.307Z" fill="white" fill-opacity="0.2"/>
<path d="M67.2978 337.304L54.6968 324.703C53.7598 323.766 52.2407 323.766 51.3037 324.703L38.7027 337.304C37.7657 338.241 37.7657 339.76 38.7027 340.697L51.3037 353.298C52.2407 354.235 53.7598 354.235 54.6968 353.298L67.2978 340.697C68.2348 339.759 68.2348 338.241 67.2978 337.304Z" fill="#BFC7F0"/>
<path d="M251.636 321.636L229.879 299.879C228.707 298.707 226.808 298.707 225.636 299.879L203.879 321.636C202.707 322.808 202.707 324.707 203.879 325.879L225.636 347.636C226.808 348.808 228.707 348.808 229.879 347.636L251.636 325.879C252.808 324.707 252.808 322.808 251.636 321.636Z" fill="#BFC7F0"/>
<path d="M344.929 219.92C350.758 153.139 378.551 90.8739 424.834 41.5919C428.522 37.6649 428.407 31.5129 424.597 27.7029L399.832 2.93892C395.869 -1.02408 389.394 -0.984079 385.543 3.08892C355.115 35.2689 331.319 72.2209 314.741 113.066C300.829 147.344 292.459 183.181 289.744 219.92H344.929Z" fill="white"/>
<path d="M289.744 272.92C292.459 309.659 300.829 345.496 314.741 379.774C328.235 413.019 346.511 443.684 369.252 471.297C384.607 461.111 398.757 449.252 411.419 435.959C373.178 389.367 350.16 332.972 344.917 272.92H289.744Z" fill="white"/>
<path d="M314.983 219.92C317.698 183.181 326.068 147.344 339.98 113.066C355.603 74.5739 377.641 39.5429 405.595 8.70192L399.832 2.93892C395.869 -1.02408 389.394 -0.984079 385.543 3.08892C355.115 35.2689 331.319 72.2209 314.741 113.066C300.829 147.344 292.459 183.181 289.744 219.92H314.983Z" fill="#EDEDED"/>
<path d="M314.983 272.92H289.744C292.459 309.659 300.829 345.496 314.741 379.774C328.235 413.019 346.511 443.684 369.252 471.297C374.772 467.635 380.13 463.749 385.325 459.666C366.797 435.151 351.608 408.424 339.98 379.775C326.068 345.496 317.698 309.659 314.983 272.92Z" fill="#EDEDED"/>
<path d="M123.083 272.92C117.84 332.972 94.8209 389.367 56.5809 435.959C69.2429 449.251 83.3929 461.11 98.7479 471.297C121.489 443.684 139.765 413.02 153.259 379.774C167.171 345.496 175.541 309.659 178.256 272.92H123.083Z" fill="white"/>
<path d="M123.071 219.92H178.256C175.541 183.181 167.171 147.344 153.259 113.066C136.68 72.2199 112.885 35.2689 82.457 3.08892C78.606 -0.984079 72.131 -1.02408 68.168 2.93892L43.403 27.7029C39.593 31.5129 39.478 37.6649 43.166 41.5919C89.449 90.8739 117.242 153.139 123.071 219.92Z" fill="white"/>
<path d="M123.071 219.92H148.6C142.771 153.139 114.978 90.8739 68.695 41.5919C65.007 37.6649 65.122 31.5129 68.932 27.7029L87.783 8.8519C86.036 6.9219 84.27 5.0059 82.476 3.1089C78.618 -0.9721 72.138 -1.0321 68.167 2.9389L43.403 27.7029C39.593 31.5129 39.478 37.6649 43.166 41.5919C89.449 90.8739 117.242 153.139 123.071 219.92Z" fill="#EDEDED"/>
<path d="M87.5169 429.174C122.522 383.938 143.613 330.085 148.604 272.92H123.083C117.84 332.972 94.8209 389.367 56.5809 435.959C69.2429 449.251 83.3929 461.11 98.7479 471.297C101.929 467.434 105.014 463.505 108.019 459.524C101.215 454.166 94.6989 448.46 88.5039 442.425C84.8739 438.889 84.4159 433.181 87.5169 429.174Z" fill="#EDEDED"/>
<path d="M425 273.92H43C37.477 273.92 33 269.443 33 263.92V228.92C33 223.397 37.477 218.92 43 218.92H425C430.523 218.92 435 223.397 435 228.92V263.92C435 269.443 430.523 273.92 425 273.92Z" fill="white"/>
<path d="M90 249C84.477 249 80 244.523 80 239V218.92H43C37.477 218.92 33 223.397 33 228.92V263.92C33 269.443 37.477 273.92 43 273.92H425C430.523 273.92 435 269.443 435 263.92V249H90Z" fill="#EDEDED"/>
<path fill-rule="evenodd" clip-rule="evenodd" d="M268.564 391.469L265.863 407.863L249.469 410.564L265.863 413.264L268.564 429.658L271.264 413.264L287.658 410.564L271.264 407.863L268.564 391.469ZM265.183 407.183L268.178 389H268.949L271.944 407.183L290.127 410.178V410.949L271.944 413.944L268.949 432.127H268.178L265.183 413.944L247 410.949V410.178L265.183 407.183Z" fill="white"/>
<path fill-rule="evenodd" clip-rule="evenodd" d="M268.564 391.469L265.863 407.863L249.469 410.564L265.863 413.264L268.564 429.658L271.264 413.264L287.658 410.564L271.264 407.863L268.564 391.469ZM265.183 407.183L268.178 389H268.949L271.944 407.183L290.127 410.178V410.949L271.944 413.944L268.949 432.127H268.178L265.183 413.944L247 410.949V410.178L265.183 407.183Z" fill="white" fill-opacity="0.2"/>
<path d="M265.863 407.863L268.564 391.469L271.264 407.863L287.658 410.564L271.264 413.264L268.564 429.658L265.863 413.264L249.469 410.564L265.863 407.863Z" fill="white"/>
<path d="M265.863 407.863L268.564 391.469L271.264 407.863L287.658 410.564L271.264 413.264L268.564 429.658L265.863 413.264L249.469 410.564L265.863 407.863Z" fill="white" fill-opacity="0.2"/>
<path fill-rule="evenodd" clip-rule="evenodd" d="M228.086 84.3299L224.443 106.443L202.33 110.086L224.443 113.728L228.086 135.841L231.728 113.728L253.841 110.086L231.728 106.443L228.086 84.3299ZM223.526 105.526L227.565 81H228.606L232.646 105.526L257.171 109.565V110.606L232.646 114.646L228.606 139.171H227.565L223.526 114.646L199 110.606V109.565L223.526 105.526Z" fill="white"/>
<path fill-rule="evenodd" clip-rule="evenodd" d="M228.086 84.3299L224.443 106.443L202.33 110.086L224.443 113.728L228.086 135.841L231.728 113.728L253.841 110.086L231.728 106.443L228.086 84.3299ZM223.526 105.526L227.565 81H228.606L232.646 105.526L257.171 109.565V110.606L232.646 114.646L228.606 139.171H227.565L223.526 114.646L199 110.606V109.565L223.526 105.526Z" fill="white" fill-opacity="0.2"/>
<path d="M224.443 106.443L228.086 84.3299L231.728 106.443L253.841 110.086L231.728 113.728L228.086 135.841L224.443 113.728L202.33 110.086L224.443 106.443Z" fill="white"/>
<path d="M224.443 106.443L228.086 84.3299L231.728 106.443L253.841 110.086L231.728 113.728L228.086 135.841L224.443 113.728L202.33 110.086L224.443 106.443Z" fill="white" fill-opacity="0.2"/>
<path fill-rule="evenodd" clip-rule="evenodd" d="M405.564 156.469L402.863 172.863L386.469 175.564L402.863 178.264L405.564 194.658L408.264 178.264L424.658 175.564L408.264 172.863L405.564 156.469ZM402.183 172.183L405.178 154H405.949L408.944 172.183L427.127 175.178V175.949L408.944 178.944L405.949 197.127H405.178L402.183 178.944L384 175.949V175.178L402.183 172.183Z" fill="white"/>
<path fill-rule="evenodd" clip-rule="evenodd" d="M405.564 156.469L402.863 172.863L386.469 175.564L402.863 178.264L405.564 194.658L408.264 178.264L424.658 175.564L408.264 172.863L405.564 156.469ZM402.183 172.183L405.178 154H405.949L408.944 172.183L427.127 175.178V175.949L408.944 178.944L405.949 197.127H405.178L402.183 178.944L384 175.949V175.178L402.183 172.183Z" fill="white" fill-opacity="0.2"/>
<path d="M402.863 172.863L405.564 156.469L408.264 172.863L424.658 175.564L408.264 178.264L405.564 194.658L402.863 178.264L386.469 175.564L402.863 172.863Z" fill="white"/>
<path d="M402.863 172.863L405.564 156.469L408.264 172.863L424.658 175.564L408.264 178.264L405.564 194.658L402.863 178.264L386.469 175.564L402.863 172.863Z" fill="white" fill-opacity="0.2"/>
<defs>
<linearGradient id="paint0_linear_1_1893" x1="54.0256" y1="318.067" x2="441.031" y2="316.617" gradientUnits="userSpaceOnUse">
<stop stop-color="#E38BF1"/>
<stop offset="0.44614" stop-color="#AA75E0"/>
<stop offset="0.985435" stop-color="#4640EE"/>
</linearGradient>
</defs>
</svg>
