<svg width="504" height="501" viewBox="0 0 504 501" fill="none" xmlns="http://www.w3.org/2000/svg">
<path d="M248 490C383.31 490 493 380.31 493 245C493 109.69 383.31 0 248 0C112.69 0 3 109.69 3 245C3 380.31 112.69 490 248 490Z" fill="url(#paint0_linear_1_1825)"/>
<path d="M68.7033 96.0081C34.4693 95.4871 5.80026 120.217 0.151263 152.743C-0.913737 158.876 3.77926 164.5 10.0033 164.5H46.3813C50.1943 164.5 53.7693 162.375 55.3553 158.907C57.5733 154.054 62.5843 150.735 68.3203 151.017C75.5723 151.374 81.1403 157.63 81.1403 164.89V176.465H82.1403C82.1403 150.897 94.2413 128.028 112.937 113.461C101.143 102.855 85.7233 96.2671 68.7033 96.0081V96.0081Z" fill="white"/>
<path d="M25.1513 152.743C30.0323 124.639 52.1053 102.37 80.0993 97.1671C76.3983 96.4751 72.5953 96.0671 68.7033 96.0081C34.4693 95.4871 5.80026 120.217 0.151263 152.743C-0.913737 158.876 3.77926 164.5 10.0033 164.5H35.0043C28.7803 164.5 24.0863 158.876 25.1513 152.743V152.743Z" fill="#EDEDED"/>
<path d="M159.81 96.0038C116.07 96.4268 81.1412 132.723 81.1412 176.465V371.5C81.1412 377.023 85.6182 381.5 91.1412 381.5H126.141C131.664 381.5 136.141 377.023 136.141 371.5V175.452C136.141 162.109 146.882 151.229 160.172 151.004C173.85 150.772 185.045 162.328 185.045 176.008L186.045 176.465C186.045 152.46 196.719 130.84 213.495 116.229C199.255 103.496 180.416 95.8038 159.81 96.0038V96.0038Z" fill="white"/>
<path d="M106.141 371.5V176.465C106.141 136.713 134.99 103.118 173.082 97.0006C168.761 96.3146 164.331 95.9597 159.81 96.0037C116.07 96.4267 81.1412 132.723 81.1412 176.465V371.5C81.1412 377.023 85.6182 381.5 91.1412 381.5H116.141C110.618 381.5 106.141 377.023 106.141 371.5V371.5Z" fill="#EDEDED"/>
<path d="M424.138 422.004C428.427 417.715 428.427 410.736 424.138 406.447L404.416 386.725H374.481C357.619 386.725 343.95 373.056 343.95 356.194V175.453C343.95 131.382 307.882 95.5765 263.713 96.0045C219.973 96.4285 185.044 132.724 185.044 176.466V371.501C185.044 377.024 189.521 381.501 195.044 381.501H230.044C235.567 381.501 240.044 377.024 240.044 371.501V175.453C240.044 162.11 250.787 151.229 264.077 151.004C277.755 150.773 288.949 162.329 288.949 176.009V356.195C288.949 403.433 327.243 441.726 374.48 441.726H404.415L424.138 422.004Z" fill="white"/>
<path d="M210.141 371.5V176.465C210.141 136.731 238.964 103.148 277.029 97.0085C272.694 96.3185 268.249 95.9605 263.713 96.0035C219.973 96.4275 185.044 132.722 185.044 176.464V371.5C185.044 377.023 189.521 381.5 195.044 381.5H220.141C214.618 381.5 210.141 377.023 210.141 371.5V371.5Z" fill="#EDEDED"/>
<path d="M314.046 356.195V176.009C314.046 162.329 302.852 150.773 289.174 151.004C284.701 151.08 280.519 152.367 276.935 154.544C284.122 158.959 288.949 167.026 288.949 176.009V356.195C288.949 403.433 327.243 441.726 374.48 441.726H399.576C352.34 441.726 314.046 403.432 314.046 356.195Z" fill="#EDEDED"/>
<path d="M410.083 498.284L385.334 473.535C381.429 469.63 381.429 463.298 385.334 459.393L423.43 421.297C427.335 417.392 427.335 411.06 423.43 407.155L385.334 369.059C381.429 365.154 381.429 358.822 385.334 354.917L410.083 330.168C413.988 326.263 420.32 326.263 424.225 330.168L501.212 407.155C505.117 411.06 505.117 417.392 501.212 421.297L424.225 498.284C420.32 502.19 413.988 502.19 410.083 498.284V498.284Z" fill="white"/>
<path d="M411.07 473.535C407.165 469.63 407.165 463.298 411.07 459.393L449.166 421.297C453.071 417.392 453.071 411.06 449.166 407.155L411.07 369.059C407.165 365.154 407.165 358.822 411.07 354.917L430.022 335.965L424.226 330.168C420.321 326.263 413.989 326.263 410.084 330.168L385.335 354.917C381.43 358.822 381.43 365.154 385.335 369.059L423.431 407.155C427.336 411.06 427.336 417.392 423.431 421.297L385.335 459.393C381.43 463.298 381.43 469.63 385.335 473.535L410.084 498.284C413.989 502.189 420.321 502.189 424.226 498.284L430.022 492.487L411.07 473.535Z" fill="#EDEDED"/>
<path fill-rule="evenodd" clip-rule="evenodd" d="M231 41.2442L227.358 63.3576L205.244 67L227.358 70.6424L231 92.7557L234.642 70.6424L256.756 67L234.642 63.3576L231 41.2442ZM226.44 62.44L230.48 37.9143H231.52L235.56 62.44L260.086 66.4797V67.5203L235.56 71.56L231.52 96.0857H230.48L226.44 71.56L201.914 67.5203V66.4797L226.44 62.44Z" fill="white"/>
<path fill-rule="evenodd" clip-rule="evenodd" d="M231 41.2442L227.358 63.3576L205.244 67L227.358 70.6424L231 92.7557L234.642 70.6424L256.756 67L234.642 63.3576L231 41.2442ZM226.44 62.44L230.48 37.9143H231.52L235.56 62.44L260.086 66.4797V67.5203L235.56 71.56L231.52 96.0857H230.48L226.44 71.56L201.914 67.5203V66.4797L226.44 62.44Z" fill="white" fill-opacity="0.2"/>
<path d="M227.358 63.3576L231 41.2442L234.642 63.3576L256.756 67L234.642 70.6424L231 92.7557L227.358 70.6424L205.244 67L227.358 63.3576Z" fill="white"/>
<path d="M227.358 63.3576L231 41.2442L234.642 63.3576L256.756 67L234.642 70.6424L231 92.7557L227.358 70.6424L205.244 67L227.358 63.3576Z" fill="white" fill-opacity="0.2"/>
<path d="M269.636 436.636L247.879 414.879C246.707 413.707 244.808 413.707 243.636 414.879L221.879 436.636C220.707 437.808 220.707 439.707 221.879 440.879L243.636 462.636C244.808 463.808 246.707 463.808 247.879 462.636L269.636 440.879C270.808 439.707 270.808 437.808 269.636 436.636Z" fill="#BFC7F0"/>
<path d="M466.297 214.304L453.696 201.703C452.759 200.766 451.24 200.766 450.303 201.703L437.702 214.304C436.765 215.241 436.765 216.76 437.702 217.697L450.303 230.298C451.24 231.235 452.759 231.235 453.696 230.298L466.297 217.697C467.234 216.76 467.234 215.24 466.297 214.304Z" fill="#BFC7F0"/>
<path fill-rule="evenodd" clip-rule="evenodd" d="M441.5 271.919L438.307 291.307L418.919 294.5L438.307 297.693L441.5 317.081L444.693 297.693L464.081 294.5L444.693 291.307L441.5 271.919ZM437.502 290.502L441.044 269H441.956L445.498 290.502L467 294.044V294.956L445.498 298.498L441.956 320H441.044L437.502 298.498L416 294.956V294.044L437.502 290.502Z" fill="white"/>
<path fill-rule="evenodd" clip-rule="evenodd" d="M441.5 271.919L438.307 291.307L418.919 294.5L438.307 297.693L441.5 317.081L444.693 297.693L464.081 294.5L444.693 291.307L441.5 271.919ZM437.502 290.502L441.044 269H441.956L445.498 290.502L467 294.044V294.956L445.498 298.498L441.956 320H441.044L437.502 298.498L416 294.956V294.044L437.502 290.502Z" fill="white" fill-opacity="0.2"/>
<path d="M438.307 291.307L441.5 271.919L444.693 291.307L464.081 294.5L444.693 297.693L441.5 317.081L438.307 297.693L418.919 294.5L438.307 291.307Z" fill="white"/>
<path d="M438.307 291.307L441.5 271.919L444.693 291.307L464.081 294.5L444.693 297.693L441.5 317.081L438.307 297.693L418.919 294.5L438.307 291.307Z" fill="white" fill-opacity="0.2"/>
<path d="M70.2978 326.304L57.6968 313.703C56.7598 312.766 55.2407 312.766 54.3037 313.703L41.7027 326.304C40.7657 327.241 40.7657 328.76 41.7027 329.697L54.3037 342.298C55.2407 343.235 56.7598 343.235 57.6968 342.298L70.2978 329.697C71.2348 328.759 71.2348 327.241 70.2978 326.304Z" fill="#BFC7F0"/>
<defs>
<linearGradient id="paint0_linear_1_1825" x1="57.0256" y1="307.067" x2="444.031" y2="305.617" gradientUnits="userSpaceOnUse">
<stop stop-color="#E38BF1"/>
<stop offset="0.44614" stop-color="#AA75E0"/>
<stop offset="0.985435" stop-color="#4640EE"/>
</linearGradient>
</defs>
</svg>
